/* XPM */
static char *character_up[] = {
/* columns rows colors chars-per-pixel */
"64 64 87 1 ",
"  c #445539",
". c #46593D",
"X c #4A5A3F",
"o c #475E41",
"O c #4C5C41",
"+ c #476042",
"@ c #496546",
"# c #4A6748",
"$ c #476C4B",
"% c #4A6E4D",
"& c #546349",
"* c #4C714F",
"= c #5E6D53",
"- c #4E7250",
"; c #517553",
": c #557857",
"> c #567958",
", c #5B7C5C",
"< c #627057",
"1 c #5F7F60",
"2 c #6F7B65",
"3 c #5F8060",
"4 c #638363",
"5 c #678768",
"6 c #698769",
"7 c #6C8A6C",
"8 c #78846E",
"9 c #718E71",
"0 c #759175",
"q c #7B9579",
"w c #7E987D",
"e c #85907A",
"r c #839A7C",
"t c #899E7E",
"y c #8D9783",
"u c #859D83",
"i c #919A86",
"p c #949D89",
"a c #89A087",
"s c #8BA28A",
"d c #92A78F",
"f c #9DA592",
"g c #95AA92",
"h c #98AB94",
"j c #9CAF9A",
"k c #9EB19B",
"l c #A4AC9A",
"z c #A1B39D",
"x c #A5B6A1",
"c c #ADB3A3",
"v c #A7B8A3",
"b c #A9BAA5",
"n c #AEBDAA",
"m c #B7BCAC",
"M c #B3C2AE",
"N c #B8C5B3",
"B c #BFCAB4",
"V c #C2CDBB",
"C c #DDDBBE",
"Z c #CBCFC1",
"A c #C6D1C0",
"S c #CAD2C3",
"D c #CFD7C8",
"F c #DFDDC2",
"G c #D3D5C9",
"H c #D4DBCD",
"J c #D9DFD1",
"K c #E1DEC2",
"L c #DDE2D5",
"P c #E4E0C3",
"I c #E7E3C9",
"U c #E9E5CD",
"Y c #E3E4D4",
"T c #E9E7D1",
"R c #ECE9D4",
"E c #E2E6DA",
"W c #E6E9DD",
"Q c #ECEBDC",
"! c #F1EEDD",
"~ c #F2F0DF",
"^ c #ECEDE2",
"/ c #F1EFE0",
"( c #EFF0E6",
") c #F3F2E4",
"_ c #F6F5EB",
"` c #F8F7EE",
"' c #F9F8EF",
/* pixels */
"%%***%*-*%%**-;--%---%%*---%%*--%**-%%%--$****%--*$-%*----*---%%",
"**%**$***%*;-;--%%--%%*%-*-%%--*%--*%-%*****-$$***$---;--*%--%**",
"---******%**--;--%--%---%---------***--------*$--%$-*----*%--%--",
"*-----***$%$%-;-%%-----%--%-*-*---%****--------*--$%%----%%--%--",
"*%%*****-%******%%----;%%%%$%%-%***%%%$*-*$$---$--$--%---%%--%--",
"-*******%%**---*-%--%--%%-------*******-------%*-$$-%-----%-*%-;",
"***-;**-*%***-*--%-----%---;-;7azbvka6;;--*$--%---$-%-----------",
";-*******$%%**------%--%-->0bL)_`''__^Jz0-----$---$%%%%--**-**--",
"-----**--$-$-----$--*--$*5bY`''''''''''_Lk4*---%-*$**-----%--%--",
"--$--*%*-$-$%--*-%------rL`'`''''''''''''_G0-----*%*%%---%$-----",
"--$--%***$------%%*-%-;dL''''''''''''''''``Lu-****$-**----%-----",
"--*--$---$%---------*;a^'''''''''''''''''```Lw**-*$***-------$--",
"--$--*--*$**-------*-wL'''''''''''''''''''''`H5--***-%------%%--",
"--$*-****$**%----%--,B`'''''''''''''''''''''``M1-*$%------$--%*-",
"---*-*--****%----$-:d(''''''''''''''''''''''''Ws**%**$**-*%--*--",
"--%-**--*$%-%%---$-3A`''''''''''''''''''''''''`B:*$****--*$--%--",
"--%--%*-*****-;****a(``''''''''''''''''''''''''W0-%***---*%--%*-",
"--$--**-******--**:v_`''''''''''''''''''''''''''d;%*-*---*%--%--",
"--*--%*-******-***4V''''''''''''''''''''''''''''M1%*-%%-*-*--%--",
"--%-*****$*****--*6J''''''''''''''''''''''''''''A3$**%-------%--",
";;***%*********;**9E''''''''''''''''''''''''''''H3$*-**---%***--",
"**%*-*******----*%9W''''''''''''''''''''''''''''L5%**----*%--*--",
";;*;;******;---;*%9E''''''''''''''''''''''''''''H3-*------%--*--",
"*****$******--**-*6J''''''''''')))))_'''''''''''S3**------*-*-;-",
"$***-%*-*%%**-;-**3V''''''''_~TUIIPIIR~'''''''''M3$****;-*%--%--",
"**------*%%**-****:b`'''''_)UPPPPKPPPPIU)''''''_d-%***-*-----%--",
"****-%-;-*-****-**-aQ''''_~PPPPPPPPPPPPPI)'''''W9-%*-***--%--%--",
"%%***%---%***--;**-3S`''`~PPPPPPPPPPPPPPPP~'''_V:-**-*----%---%%",
"----*----$*-*-*-***;d('`)PPPPPPPPPPPPPPPPPI)'`Wa*-%*---***%*----",
"--**-----*--***-*$**4V`_TPPPPPPPPPPPPPPPPPPR``M3--*--***-*%*----",
"--%***---%%-*--******0J!IPPPPPPPPPPKPPPPPPPI^D7--*$****;**%-*-**",
"***%**-*-**-**-;*****,nTPPPPPPPPPPPPPPPPPPPPLx;*--**;***;*%-*%%*",
"*---;--*-****;;--*-*,M~IPPPPPPPPPPPPPPPPPPPPI~k>****-*------*---",
";;*--*;-;;*%**-----;0W)IPPPPPPPPPPKPPPPPPPPPU)J9-;-*%---------;-",
"-**-*---*****;--**--s))PPPPPPPPPPPPPPPPPPPPPP_Ww*;***----**-----",
"-*%****%*******-***;h_)PPPPPKPPPPPPPKPPPPPPPI)~s*-***-**--**%***",
"**%***-*%****-*****:v_)PPPPPPPPPKPPKPPPPPPPPI)(j**%-**--********",
"%-%%---*-****----**>M`)PPPPPPPPPPPPPPPPPPKPPI)(M**-%**---**--*%-",
"%$$%%$%%*%%**-;-***;V`)IPPPPKPPPPPPPPPPPPPKIT_'N**%$**---*%%$%%%",
"---%%***%%*$%--;**;3G''UPPPPPPPPPPPPKPPPPPPIR_'V-%$-$**---*;--*-",
"----%--*%%*%----**;6H''~IKPPPKPPPPPPPPPPPPPP~''S>*$-*-;---%-----",
"%%-%%%*-*%%-*---***0L''_UKPPPPPPPPPPPPPPPPPU_''L3-$%*-----*---**",
"*%*%%%**%%%--;--%%*wW''`!IIKPPPPPPPPPPPPPPI~`''L7-%---;--%%--%-%",
"----%%*--$----;-*%-a^'''`TKKPPPPPPPPPPPPPPR''''(0*$**----*%--%--",
"-------*%%%$*-;***-s)'''`YTIKIIKPPPPPPPPIRE''''(q*$*%*---%%--%--",
"%%%--%%--%*-*****%-wE''')V^/UKKKPPPKPPPU~QV('''L7*$*-%*-**%--%-;",
"--%--%%-*%**-*-***->kW_Evh^`_!TFCCPCCU!`'WdM^_Lg;******---%--%-;",
"-%%--%---$***-*-**-->qs0,u^'``)BrtttV~'''Y0>rs9:-*%**%-*--------",
"-----$*-*$%%%%--**-**-*%*qW'''`N***>B''''L9%--$*-*$*%%*---*-*$-*",
"-----**-**-*%---*%--*--%-9Y'''`B*%*1S''''J4%--**-*$**%---**--*--",
"%-%--****%%%%-****;**-*$*5D'''`V;--1S''''B2$--****%*%*-*-**--*--",
"--%-*****$***--;***-*-***,M''``J3**0L''''x>*******$**----*%***--",
"--***%*-*%**-;--;****-***,M`''`W0**u^'''`x>%-***--%***;---*--***",
"--%--*--*%***---**-******>b`''`_w%*d('''`g;%*-**-*$***----*-****",
"*-%*-****%%**---**--%*-*;-h`'''`eO f`'''_u*%*;****$***---*$--**-",
"-;%*-*--%%**%-%-******-#+.e/''''pOOc''''^2oo#-**-****%**--**-*--",
"--**-**-*%****--*%*-%-#.  8W''''lO&m''''J2  o@**--$*-----*$--$--",
"-*%--%*-*%***-;-*%-*%%X   <H'''`iOOl`''`Z&   o%*--$**$---**-***;",
"--%*-**-*%***---*%--%*@   Op^_)S=  2G__Ey    @**--*--$---*****-;",
"**%--%*-******-*-*;-%**#.  O8fy=    =pf2o  o@*%*--$*--*-*-*--$-*",
";;%-****-$*****--*--%-;%$@oo...      O O+$$$--*-**$***----*--*--",
";-%-*%%**$****---%**%;%%***%####o@@@O$#$--*%--$$**$*****;-****--",
"-***-*---**-----*%*-%;;%$;;;-*-*%-----*----**-----**-----*****-;",
";;*--*%*-*-----;-#;-%;;%*;*---*-%--*--*--;-*--*$--**----;*$-**;-"
};
