/* XPM */
static char *character_right[] = {
/* columns rows colors chars-per-pixel */
"64 64 143 2 ",
"   c #445539",
".  c #45593D",
"X  c #4A5A3E",
"o  c #475D40",
"O  c #495F41",
"+  c #476747",
"@  c #496344",
"#  c #496748",
"$  c #4A6E4D",
"%  c #556449",
"&  c #5C6B4B",
"*  c #4C714F",
"=  c #55724E",
"-  c #5F704B",
";  c #4E7250",
":  c #517553",
">  c #557857",
",  c #567858",
"<  c #5B7C5C",
"1  c #6A6F49",
"2  c #70744D",
"3  c #6B785F",
"4  c #6A7960",
"5  c #717C60",
"6  c #94693C",
"7  c #B46633",
"8  c #BD6F3D",
"9  c #C5652E",
"0  c #CB642C",
"q  c #CC6932",
"w  c #CF713D",
"e  c #66804D",
"r  c #6A834A",
"t  c #758746",
"y  c #7A8B45",
"u  c #5F8060",
"i  c #628262",
"p  c #698669",
"a  c #6D8A6B",
"s  c #798468",
"d  c #718D6D",
"f  c #78926F",
"g  c #7C8771",
"h  c #708D70",
"j  c #7B9374",
"k  c #7B967A",
"l  c #C2B73B",
"z  c #DFC737",
"x  c #D3C138",
"c  c #DEC43F",
"v  c #EBCF39",
"b  c #EED133",
"n  c #F5D432",
"m  c #F9D631",
"M  c #FFDA30",
"N  c #FFDC3A",
"B  c #849043",
"V  c #899343",
"C  c #989E42",
"Z  c #9E9A5B",
"A  c #A49D57",
"S  c #9CA143",
"D  c #AEA453",
"F  c #919160",
"G  c #828C77",
"H  c #8B947B",
"J  c #829A7D",
"K  c #8A9D7E",
"L  c #939B7F",
"P  c #C69D7A",
"I  c #DC9B75",
"U  c #D9C140",
"Y  c #FEDD46",
"T  c #FEDF52",
"R  c #FBE05E",
"E  c #FDE265",
"W  c #FDE36B",
"Q  c #FDE475",
"!  c #FDE57B",
"~  c #859D83",
"^  c #8DA48B",
"/  c #93A485",
"(  c #93A48C",
")  c #9BAB8D",
"_  c #9FA795",
"`  c #94A992",
"'  c #98AC95",
"]  c #A2B49F",
"[  c #A9B39B",
"{  c #B5B89B",
"}  c #A6B7A2",
"|  c #A9BAA5",
" . c #B0BFAB",
".. c #DCB99E",
"X. c #E4B89A",
"o. c #BCC2A5",
"O. c #B5C1AA",
"+. c #B5C3B1",
"@. c #BCC8B6",
"#. c #BECAB8",
"$. c #D3D195",
"%. c #FCE88C",
"&. c #FBEB9C",
"*. c #C6CAAD",
"=. c #C9CAAE",
"-. c #C9CCB0",
";. c #C3CEBD",
":. c #CED0B4",
">. c #D3D4B7",
",. c #D8D7BA",
"<. c #DCDABD",
"1. c #E6C2A6",
"2. c #FBECA4",
"3. c #FBEDAC",
"4. c #FAEEB5",
"5. c #FBF0BB",
"6. c #C6D0C0",
"7. c #CCD5C6",
"8. c #D3DACC",
"9. c #D8DBC8",
"0. c #DADFD2",
"q. c #E1DEC1",
"w. c #DDE2D5",
"e. c #E4E0C4",
"r. c #E6E3C9",
"t. c #E9E6CE",
"y. c #FAF2CA",
"u. c #EAE7D0",
"i. c #ECE9D4",
"p. c #E5E8DC",
"a. c #ECEBDB",
"s. c #F2E5D5",
"d. c #F1EEDD",
"f. c #FAF4D4",
"g. c #F2F0DF",
"h. c #FAF4DC",
"j. c #ECEDE2",
"k. c #EFF0E5",
"l. c #F4F2E5",
"z. c #F9F7E7",
"x. c #F6F5EB",
"c. c #F8F7EC",
"v. c #F9F8EF",
/* pixels */
"* $ $ * * $ $ ; ; : ; : * $ * * $ * $ $ ; * ; $ $ * * $ * * * * * * ; $ ; * $ * $ $ $ * ; * $ $ * * : : ; * $ * ; * ; * * * * ; ",
"* $ * * $ $ * * ; ; ; ; * $ ; ; $ ; ; ; * ; ; ; : ; ; ; * ; ; * * ; ; ; ; * ; ; ; ; $ $ * $ $ * * * ; : ; $ $ ; ; $ ; ; * * * ; ",
"* * * * $ $ $ $ $ ; ; ; * $ ; ; $ * ; ; $ ; ; $ ; * * * * ; $ * $ * $ * ; ; ; ; ; ; ; ; ; * $ $ * * ; ; * * * ; ; $ * ; * $ * * ",
"; * * * ; $ $ ; * ; ; * * $ ; ; $ ; : * $ $ $ $ $ $ * ; $ * $ $ $ * $ $ $ $ $ $ ; ; $ $ * ; $ $ * * * ; * * $ ; ; $ ; ; * $ * $ ",
"* * * * * * $ $ * ; ; * * * * * $ ; ; * * ; ; ; ; ; ; ; ; ; * * * * * * : ; ; $ ; ; $ $ ; ; $ $ * * * ; ; ; * ; ; $ ; ; * * ; ; ",
"= * * ; * $ ; $ * * * ; * * ; : ; ; ; $ ; ; ; ; ; ; $ ; < u u u u u > : ; ; ; $ ; ; $ ; ; $ $ $ * $ * ; ; ; * ; ; * ; ; $ * ; ; ",
"; * * ; * $ $ $ $ * ; : * * : * $ ; ; $ ; ; : ; * > h ` +.#.7.8.6.@.] ~ p : ; $ ; ; $ ; ; ; $ $ $ $ * ; ; * * ; * $ ; ; $ ; ; ; ",
"; * $ * * $ $ * $ * ; ; * * * * * ; * $ $ ; ; < ~ #.w.v.x.x.v.v.v.v.x.k.w.O.k : ; ; $ $ ; $ $ ; * $ * * ; * * * ; * ; ; $ ; ; ; ",
"; * $ * * $ * $ $ ; ; ; ; $ ; ; ; ; ; $ ; ; p +.w.x.v.v.v.v.v.v.v.v.v.v.v.x.w.` i - : $ * ; $ $ * * ; ; * * * ; ; $ ; ; $ ; ; * ",
"* * * ; $ $ * * * ; ; ; * $ ; ; $ ; ; $ : ^ 8.v.v.v.v.v.v.v.v.v.v.v.v.v.v.v.v.a.P 7 6 & ; $ + $ * * ; ; ; * * * ; * ; * $ * ; * ",
"; $ * ; * $ $ * * : ; ; ; * ; ; $ ; * : ^ w.v.v.v.v.v.v.v.v.v.v.v.v.v.v.v.v.v.a.I 0 9 6 = ; $ * * * : ; ; ; * ; ; $ ; * * * ; ; ",
"; * * ; * $ $ ; * ; ; ; ; * ; * $ * : ~ w.v.v.v.v.v.v.v.v.v.v.v.v.v.v.v.v.v.v.x.X.q 0 7 1 * $ $ * * ; ; * ; * * * $ * ; * ; ; : ",
"; * * ; * $ $ * * ; ; * ; $ ; ; $ ; h 7.v.v.v.v.v.v.v.v.v.v.v.v.v.v.v.v.v.v.v.v.s.I w 8 2 $ $ $ * * * * ; ; * * * * ; ; * ; ; ; ",
"; * ; ; * $ $ * * * * ; * $ * ; * > +.k.v.v.v.v.v.v.v.v.v.v.v.v.v.v.v.v.v.v.v.v.c.s.1...H : $ * * * ; * ; * $ * ; * ; ; * * ; ; ",
"; $ * ; * $ * * * * ; ; * $ ; ; * k j.v.v.v.v.v.v.v.v.v.v.v.v.v.v.v.v.v.v.v.v.v.c.v.c.c.;.i $ $ * * * ; ; * $ ; ; * ; ; * * ; ; ",
"; $ * ; * $ $ * * ; ; ; * $ * ; : } x.v.v.v.v.v.v.v.v.v.v.v.v.v.v.v.v.v.v.v.v.v.v.v.c.v.j.~ $ $ * * ; ; * * $ * * $ * ; * * ; ; ",
"; ; * ; ; * * ; * * ; ; * $ ; ; p 8.v.v.v.v.v.v.v.v.v.v.v.v.v.v.v.v.v.z.v.z.c.c.v.v.v.v.x.+.; * ; * * * ; ; $ ; ; $ * : * ; ; ; ",
"; $ * ; * * * * * * ; * ; * ; ; ~ p.v.v.v.v.v.v.v.v.v.v.v.v.v.v.v.c.z.y.3.&.&.&.2.2.2.3.3.$.e * ; * * ; ; ; $ ; ; $ ; ; * ; * * ",
"; $ * * $ $ $ * * ; ; ; ; * * ; O.k.x.v.v.v.v.v.v.v.v.v.v.v.v.v.v.f.%.R M M M M M M M N N v t * * * * ; ; ; * ; ; $ ; ; * * * * ",
"* $ $ * ; $ $ ; * ; * ; ; * * ; +.x.v.v.v.v.v.v.v.v.v.v.v.v.v.v.f.! N M M M M M M M M M M n B * * * * * ; ; $ * ; $ ; ; * * * ; ",
"* * * ; ; $ * ; ; * ; : * $ * ; #.v.v.v.v.v.v.v.v.v.v.v.v.v.v.v.%.N M M M M M M M M M M M M B $ ; ; ; ; ; ; $ * * * ; ; $ $ ; ; ",
"; * $ * ; $ * ; ; : ; ; * $ * ; 6.v.v.v.v.v.v.v.v.v.v.v.v.v.v.f.R M M M M z z M M M M M M M V * ; ; ; ; ; ; $ ; * * : : * * ; ; ",
"; $ $ ; * $ $ ; ; ; ; * ; * ; ; #.v.v.v.v.v.v.v.v.v.v.v.v.v.v.5.N M M M M D A m M M M M M m B * ; ; ; * ; ; * ; ; * ; ; * * * * ",
"* * * ; * $ $ * * * ; ; * * ; * O.x.v.v.v.v.v.v.v.v.v.v.v.v.x.4.M M M M M Z F M M M M M M b y $ * * ; ; ; * * ; * $ * * * * * * ",
"; * ; ; ; $ * * * * * ; * * ; ; ^ j.v.v.v.v.v.v.v.v.v.v.v.v.v.5.N M M M M A F M M M M M M z r $ * * ; ; * ; * ; * * ; ; ; ; ; ; ",
"* * ; : ; * * * * * * ; * * ; ; a 0.v.v.v.v.v.v.v.v.v.v.v.v.v.f.T M M M M D A M M M M M M l = * * * * * ; * * * * * * * * ; * * ",
"* * * * ; $ * * * ; ; ; * $ * ; u +.v.v.v.v.v.v.v.v.v.v.v.v.v.v.! N M M M c U M M M M M b C * * * * ; ; ; ; $ * * * * * * * * * ",
"* ; : * * $ * * ; ; ; ; * * * ; ; ^ j.v.v.v.v.v.v.v.v.v.v.v.v.v.y.W M M M M M M M M M M x r $ * ; ; ; ; ; * * * * : ; ; * : ; * ",
"* ; : ; ; * ; ; * * ; ; * * * ; ; u ;.x.v.v.v.v.v.v.v.v.v.v.v.v.c.y.Q Y N M M M M M M v S : $ * ; * * * ; * * * ; ; ; ; ; : ; * ",
"* * ; ; * $ * ; * * ; ; * $ ; * ; ; ~ w.v.v.v.v.v.v.v.v.v.v.v.v.c.v.h.4.%.! W W E E R U e * $ ; ; * * * ; * $ * * * * * * * ; * ",
"* ; * * * * * ; * ; ; ; * * * * $ ; : ' j.v.v.v.v.v.v.v.v.v.v.v.v.v.v.c.c.z.x.c.z.z.9.f ; ; * * ; * ; ; ; ; * * * * * * * ; * * ",
"; ; ; ; ; ; * ; * ; ; ; ; * * * ; ; ; u | k.v.v.v.v.v.v.v.v.v.v.v.v.v.v.v.v.v.v.v.w.^ : ; ; ; * ; ; ; ; ; * * ; * ; ; ; ; ; ; ; ",
"; ; ; ; ; ; * * * ; ; ; ; ; ; ; : : ; * < ] p.v.v.v.v.v.v.v.v.v.v.v.v.v.v.v.v.z.8.~ : ; ; ; ; ; * ; * ; ; ; ; ; ; ; ; ; ; ; ; ; ",
"* ; ; * ; * $ * ; ; ; ; * ; ; * * * ; = * > ] l.v.v.v.v.v.v.v.v.v.v.v.v.v.c.k.#.k ; ; ; ; ; * * * ; ; ; ; * * ; ; ; ; ; ; ; * $ ",
"* * * * * * * * * * * ; * * * * * * * * * * J e.i.l.v.v.v.v.v.v.v.v.v.v.c.7.` u * * $ * ; * * * * * * * * * * * ; * * $ * ; * ; ",
"* * * * * * * * * ; * * * * * * * * * * * * k <.e.u.l.v.v.v.v.v.c.z.k.a.u.^ ; $ * * * ; * * * * * * ; ; * * * * * * * ; * * $ ; ",
"; ; ; ; * * * * * ; ; * * * ; * * * * * * ; j <.e.e.l.v.v.v.v.v.i.t.t.r.q.J * * $ ; * ; * * $ $ * * ; ; ; ; * * * * * ; * * * * ",
"$ $ $ $ $ $ $ $ * ; ; ; * * * $ * $ $ * * ; a >.e.e.a.v.v.v.v.v.t.<.5.<.,.j $ $ $ $ $ $ * $ $ $ * * ; ; ; * * * $ $ $ * $ * * $ ",
"$ $ $ * $ $ * $ * ; ; ; * * ; ; * * * ; ; ; i -.e.e.i.v.v.v.v.v.t.e.r.r.:.a * $ $ $ $ * * * $ $ $ $ * ; ; ; * ; * ; ; ; ; ; ; * ",
"* * ; * $ $ * * * : ; ; ; * ; ; : * : * : ; > { e.e.i.v.v.v.v.v.i.e.<.<.o.u * * * * * * * * $ * * * ; ; ; ; * ; ; ; ; ; ; ; ; ; ",
"* $ * ; * $ $ * * ; : ; ; * ; ; * * * * * * * / <.e.i.z.v.v.v.v.a.e.e.q.) : $ * * * $ * * * $ * ; ; ; ; ; * $ ; ; ; * $ * * ; ; ",
"$ $ * * * $ * * ; : ; ; * * * ; * * * * * * * a *.e.t.z.v.v.v.v.g.e.e.:.d $ * $ * * $ $ * * $ $ ; ; : ; ; * $ ; ; * * * * * * * ",
"; $ * * $ $ * * * ; : ; * $ * ; * * * * * * : > ` <.t.x.v.v.v.v.h.r.e.[ u $ ; ; ; * $ $ * * $ $ ; * ; : ; * $ ; ; $ ; ; * * ; ; ",
"; * * * * $ $ $ * ; ; * * $ * ; * * ; * * * * * 4 *.q.l.v.v.v.v.l.r.<.K * * ; * ; ; * ; * * $ $ $ $ ; ; * * $ ; ; $ * ; * $ ; * ",
"* * * * * $ * * * * * * * $ * : * * : * * * * * * j :.g.v.v.v.v.a.e.<.K * * $ $ ; ; * $ * ; $ * ; * * * * $ $ ; ; * ; : * $ $ $ ",
"* * * * * $ * * * * ; ; * * * * * * : * * * * * ; <  .d.l.c.v.l.t.e.<.K : : * * * * $ $ ; * $ * * * * ; ; ; $ ; ; $ ; ; * * ; ; ",
"; * * * * $ * $ * * * ; * * : * * * * * : * * : ; , | c.c.c.x.l.t.<.<.K : * * $ ; = * * ; * $ * * $ ; ; ; ; ; ; ; $ ; ; $ ; ; ; ",
"; $ * * * $ * $ $ * ; : * * = * * * * * * * : * * * } v.v.v.v.v.t.e.<.K * : ; * ; ; $ * ; * $ $ $ $ $ ; ; ; $ ; ; $ ; ; $ ; ; ; ",
"* * * * * $ $ * $ * ; ; * $ * ; * * ; $ * ; ; $ $ * _ x.v.v.v.v.t.e.>.j ; ; ; $ ; ; * $ * * $ * * * * * ; * * * ; * ; ; * * ; ; ",
"; * * * * $ $ * * * ; ; ; * ; ; * ; ; $ ; ; ; $ $ ; ~ j.v.v.v.c.t.q.>.j * ; ; * * * * $ * $ $ $ * $ ; * * ; * * * * ; ; $ * ; * ",
"* * * * * $ * * * ; ; ; * * * ; * ; * $ * ; ; $ ; ; ~ j.v.v.v.v.i.e.<./ * ; ; $ * ; * * * * $ $ * * ; ; ; * * * ; * * * $ * ; ; ",
"* * * ; * $ $ * * ; ; ; ; * ; ; $ ; * * * ; ; $ $ ; ` x.v.v.v.v.i.e.<.~ * ; ; $ * ; * * ; * $ * * ; ; ; ; ; * ; ; * ; * * ; ; ; ",
"* * ; ; ; * * * * ; ; * * * * * $ * * * ; ; ; $ * ; ^ k.v.v.v.v.i.e.q./ $ ; ; $ ; ; * * ; * $ * * * ; ; ; ; * ; ; $ * ; * * ; ; ",
"; * * * * $ $ * * ; ; ; ; * ; ; $ * ; * ; ; $ @ @ o H j.v.v.v.v.i.e.e.L o + + $ * ; * * * * $ $ * * ; ; ; ; $ ; ; $ ; ; * ; ; ; ",
"; * * ; * $ $ * * * * ; * $ * ; * * ; * # O .       G j.v.v.v.v.d.e.e.L     . o + $ * ; ; * $ * * * * * ; * $ * ; $ ; ; * ; ; ; ",
"; * * ; * $ $ * * * ; * * * ; ; * * * @   .         g p.v.v.v.v.d.e.<.H           o $ * * * $ $ * * * ; ; * $ * ; $ ; ; $ ; ; ; ",
"* * * ; * $ * * * ; ; ; ; $ * ; $ $ $ o             4 0.v.v.v.v.u.<.=.5             + $ * * $ $ * * ; ; * * * ; ; $ * ; * * ; ; ",
"; * * * * $ * * * * ; ; * * ; ; $ * % O           o O _ p.c.l.9.=.{ s X           o + $ * * $ * * * ; ; ; * * ; * $ ; ; * ; ; ; ",
"; * * * * * * * * * * * ; * ; ; $ * ; # O .           % H [ ( 3 1 % .           + + $ * : * * * * * * ; * ; * ; ; $ ; ; * ; * ; ",
"; * * * * $ $ * * * ; ; ; * ; ; * ; ; $ $ $ @ o o                     . . @ @ # * * $ * * * $ * * * ; ; ; ; * ; ; $ * ; * * * * ",
"* * * * * * * * * ; ; ; ; * * * * ; ; * $ ; * $ # # # @ @ @ @ @ @ @ @ # $ ; ; $ ; * * $ * ; $ * * * * * ; ; * * ; * ; ; * * * * ",
"; * * * ; * $ * ; ; ; ; * * * * * ; ; * * ; ; ; * * : : * * * ; ; ; : ; = ; ; $ * ; * * ; ; $ $ * * ; ; ; * * * * ; ; ; $ * ; ; ",
"* * * * * * * ; ; ; ; ; * $ ; ; * ; ; * * ; * : : * * * * * * * ; ; ; ; ; : : * * ; * * * ; $ ; ; ; ; ; ; ; * ; ; * ; ; * * ; ; ",
"* $ * * * * * ; ; ; * ; ; * ; ; * : ; $ $ * * * * * * * * * * * ; ; * * $ $ ; $ * * $ * * * $ * ; ; ; ; * * * ; * * ; * * $ * * "
};
