/* XPM */
static char *character_down[] = {
/* columns rows colors chars-per-pixel */
"64 64 136 2 ",
"   c #44563A",
".  c #465B3E",
"X  c #495A3E",
"o  c #475E40",
"O  c #4D5D42",
"+  c #476344",
"@  c #496445",
"#  c #476B4B",
"$  c #4A6E4D",
"%  c #516046",
"&  c #55654B",
"*  c #52684B",
"=  c #59684E",
"-  c #4C714F",
";  c #5A6C51",
":  c #4E7350",
">  c #507553",
",  c #557857",
"<  c #577958",
"1  c #5B7C5C",
"2  c #5F7076",
"3  c #6A7760",
"4  c #6F7B6F",
"5  c #717C6D",
"6  c #CB652D",
"7  c #CD6A35",
"8  c #D17745",
"9  c #5F8060",
"0  c #648364",
"q  c #6C8A6D",
"w  c #75806A",
"e  c #728F72",
"r  c #7E8973",
"t  c #769176",
"y  c #7B957A",
"u  c #7E987D",
"i  c #EFCF37",
"p  c #E6CA3B",
"a  c #EACC39",
"s  c #F7D534",
"d  c #F9D633",
"f  c #FFDA30",
"g  c #FFDB3A",
"h  c #858964",
"j  c #818C76",
"k  c #88937E",
"l  c #CAB747",
"z  c #C0B04B",
"x  c #C8B548",
"c  c #D3BD43",
"v  c #D88D62",
"b  c #DA956E",
"n  c #DE9F79",
"m  c #DBC240",
"M  c #FEDD43",
"N  c #FEDE4A",
"B  c #FEE056",
"V  c #FEE15B",
"C  c #FDE162",
"Z  c #FDE36A",
"A  c #FDE577",
"S  c #FDE67C",
"D  c #839C82",
"F  c #939C8A",
"G  c #88A086",
"H  c #8DA38A",
"J  c #90A58D",
"K  c #9AA28F",
"L  c #94A991",
"P  c #99AD96",
"I  c #9EB19B",
"U  c #A1A997",
"Y  c #A6AE9B",
"T  c #A2B49E",
"R  c #AEB99A",
"E  c #A5B6A1",
"W  c #A9BAA5",
"Q  c #ADBDA8",
"!  c #B4BCA4",
"~  c #E3AF8F",
"^  c #BCC3A5",
"/  c #B3C1AE",
"(  c #BEC6AB",
")  c #B7C4B2",
"_  c #BAC5B4",
"`  c #BCC8B6",
"'  c #BECAB8",
"]  c #FDE886",
"[  c #FCE88C",
"{  c #FCEA97",
"}  c #FCEA99",
"|  c #C0C4B5",
" . c #C3CDBC",
".. c #C6D0BF",
"X. c #EAC6AD",
"o. c #EBCDB6",
"O. c #EDD0BB",
"+. c #FCECA3",
"@. c #FBEEB3",
"#. c #FAEFB9",
"$. c #FAF0BE",
"%. c #CACEC1",
"&. c #C7D1C1",
"*. c #CBD4C4",
"=. c #CFD7C8",
"-. c #D2D7C9",
";. c #D4DBCC",
":. c #D9DBCF",
">. c #D9DED1",
",. c #F1DDCB",
"<. c #DEE0CE",
"1. c #DCE0D3",
"2. c #E4E0C3",
"3. c #E5E3CA",
"4. c #E9E5CD",
"5. c #FAF1C1",
"6. c #FAF2CB",
"7. c #E0E4D7",
"8. c #EBE7D1",
"9. c #ECE9D3",
"0. c #E2E6DA",
"q. c #E7EADE",
"w. c #EDECDA",
"e. c #F3E3D3",
"r. c #F1EEDD",
"t. c #FAF3D3",
"y. c #F2F0DF",
"u. c #FAF5DE",
"i. c #ECEEE3",
"p. c #F6EDE1",
"a. c #EFF0E5",
"s. c #F3F2E5",
"d. c #F9F6E3",
"f. c #F6F5EB",
"g. c #F8F7ED",
"h. c #F9F8EF",
/* pixels */
"$ $ $ $ - : - # - - : > : : - $ : : # - # - $ : $ # # : - - # - $ : # - # - - $ $ $ $ $ $ - - - $ - - : > : : - - - : - $ # - - ",
"- : - # - - - $ : - : > : : $ - : : : : - : : : : : : : : - : : : - : : : : : : : - : - $ - - - $ - - : > : : - - : - - : : - - ",
": : - $ : - - # $ - - : : - - - : : # : : : - : : : : : : - : - - : : : : : - : : : : - $ : - - # $ - - : : - - - : - # : : - - ",
"- : : - - : : # - : $ : : : $ $ : : - : : # # - # $ $ $ : # - - # # # - # $ - $ - - : : - - - - # - - $ : - - $ - - : - : : # $ ",
"$ - - # - : - $ - - - - - - - - - : # : > # - : : : : : : : : - - - - - - : : : - - - - $ - : - - - - - - - : - - - : $ : , - - ",
"$ > > $ : : - $ : - - : - : : - : - : : : - : : : : : : 1 0 q e q q 9 , : : : - - - : - # : : - # - - - : - : - - : - - : : $ : ",
"$ > - # : : - # - $ $ - : : - - : : : : : - : : : < y E ..1.q.i.i.1.=./ H 0 : : : $ : : $ : : - # - - # : : : - : : - - : : - - ",
"$ > - $ - : - # - - - - : : : - : : - : - # - 9 H =.a.f.h.h.h.h.h.h.h.h.f.1.Q q > - : : $ - - - # - - - - : : : : : : - : - # - ",
"- : - $ - : : # - $ : : : : $ $ : : - : - - 0 ` i.g.h.h.h.h.h.g.h.h.h.h.h.h.f.-.D - : : - - - - $ - $ - : - - - $ : - $ : : $ > ",
"$ - : - - : - # - - : : $ : - $ : : - : : y 1.g.g.h.h.h.h.h.h.g.h.h.h.h.h.h.h.h.f.E 1 : $ - - - $ - $ - : - : - - : : - : : # : ",
"$ - - $ - - - # - $ : : : : : : - : : > y 1.h.h.h.h.h.h.h.h.g.g.h.h.h.h.h.h.h.h.h.a.W > $ : - - $ $ - : > : > - : - : - : : $ : ",
"$ : : $ : : : $ - : : : : : : $ : : - q 1.f.h.h.h.h.h.h.h.h.r.X.4.h.h.h.h.h.h.h.h.h.s.P : : : - $ - - - > > - - - : - $ - : $ : ",
"$ - : - : : $ # - - : - : : : - : : < ' h.h.h.h.h.h.h.h.h.h.~ 6 v e.h.h.h.h.h.h.h.h.h.i.t : : - $ - $ - - - > - - : - $ - : $ > ",
"# : : $ : - - # - - - : : : - $ : : J a.h.h.h.h.h.h.h.h.h.h.v 6 7 O.h.h.h.h.h.h.h.h.h.h.&.1 - - # - - - > - : - $ : - $ : : $ : ",
"$ - : - : : : # - : - - : : $ $ : 3 >.h.h.h.h.h.h.h.h.h.h.h.8 6 7 o.g.h.h.h.h.h.h.h.h.h.i.H : - # - - - - : - - $ - > - : : $ : ",
"- - - $ - : : # - - - : : - - - : D f.h.h.h.h.h.h.h.h.h.h.h.b 6 8 ,.g.h.h.h.h.h.h.h.h.h.h.' , - $ - - - > : - - - : - $ : : $ : ",
"# : : $ : : : $ : - - - - > - - > ' h.h.h.h.h.h.h.h.h.h.h.h.e.n X.h.h.h.h.h.h.h.h.h.h.h.h.a.0 : # - - $ : : : $ - : : $ : > $ : ",
"$ : : $ - - - $ : - - - : - - - 0 1.h.h.h.h.h.h.h.h.h.h.h.h.h.f.h.h.h.h.h.h.h.h.h.h.h.h.h.h.G : $ : - - : : : $ : : : $ : : $ : ",
"$ : : $ - : - $ - - - > - - > - t i.h.h.h.h.h.h.h.h.h.h.h.h.h.h.h.h.h.h.h.h.h.h.h.h.h.h.h.h.Q - # - - - : : : : : : : $ : : - : ",
"$ : - $ - - $ $ - - - - : > - - u s.h.h.h.h.h.f.6.{ A Z Z Z Z Z Z Z Z Z S +.t.f.h.h.h.h.h.h.` : $ - - - : : : : $ : : $ : : $ : ",
"- - - $ - - : $ - - - - - : - - G h.h.h.h.h.g.{ M f f f f f f f f f f f f g B $.h.h.h.h.h.h.*.> $ $ : : $ : : : $ - - - : : $ $ ",
"$ : > - - > : - - > - > : - - - G f.h.h.h.g.} g f f f f f f f f f f f f f f f N @.h.h.h.h.h...> $ - : : : : : $ $ : - - : : $ : ",
"$ > : # - - - $ : - > : - : - - u a.h.h.h.6.N f f i m f f f f f f f f d m s f f B d.h.h.h.h.` > $ : : : > : : : - : - - > : $ : ",
"$ - - # : - - # - - - : : : - - t 0.h.h.h.] f f f l h f f f f f f f f a w i f f f @.h.h.h.h.I : # - $ : : : : $ : : : - : : # $ ",
"- : : : : : - $ - - - : : - : : 9 1.f.h.h.V f f f z w d f f f f f f f p 2 p f f f [ g.h.h.h.k - $ - - - : > - - - : - $ : : : : ",
"- - : - > : : $ - - - - - : - - > / f.h.h.B f f f z 4 f f f f f f f f p 2 a f f f S h.h.h.q.0 : # : - - - - - - - : - - : : : : ",
"$ $ $ $ : : : - - - - : - > - - > y f.h.h.C f f f x r f f f f f f f f a 5 a f f f [ g.h.h.) , : - - - - : : > - $ : - $ $ $ - - ",
": : : : : : : # - : - : - : # - - < *.g.h.{ f f f a c f f f f f f f f d l d f f g 5.h.h.i.u - - # - : : : - : - - : : : : : : : ",
"- - : : : : : # - > - - - > - # - > G q.h.t.B f f f f f f f f f f f f f f f f f Z g.g.g._ 1 : - # : : - - : : $ - : : - : : : : ",
"- - : : : , - $ - - - - - - - - > - , / h.f.#.M f f f f f f f f f f f f f f f B 6.h.g.7.q : : - - : - - - : - - - : : : : : : > ",
"- $ $ - - - - $ - : - > - > - # - - - 0 1.h.f.$.Z M d f f f f f f f f f g N A t.g.h.a.J : - - - - : - - > : : $ $ - $ - $ - - - ",
"- - : : : : : - - > - : > > - - : - > P <.s.h.g.u.@.+.{ { { { { { { { { +.$.d.f.h.f.i.' 0 : - : - - - - : : : - - - - : : : : : ",
"> - - - : : : : - - - - > : : : - - u i.w.3.y.f.h.h.h.h.h.h.h.h.h.h.h.h.h.h.h.h.d.8.3.f.) > : : : - - : : : : : : : : > : - : > ",
": - > > > : : - - - > : : - - - : 9 T f.w.2.<.t.f.h.h.h.h.h.h.h.h.h.h.h.h.h.f.s.8.2.3.h.1.9 - : - - - : : : : - : : : : : > - : ",
"- - - - - - : - - - - - - : - - - : / h.w.$.2.2.3.r.d.h.h.h.f.g.h.h.h.h.g.s.9.2.2.2.2.h.0.0 - - - - - : - - - - - : $ : - - : - ",
"$ - - - - $ - - : - - : - - - - # 9 ' f.0.2.2.2.2.2.3.9.w.s.d.s.d.s.y.9.4.2.2.2.2.2.3.h.q.t - - : : - : : - : - : - : $ - - : - ",
"$ - : - : - : $ - - $ > : - - - $ 9 =.f.w.<.O.2.2.2.2.2.$.<.<.2.<.2.2.2.2.2.2.2.2.2.3.h.i.D - - # : - - : - : - - - - - - : - - ",
"# - $ - $ : : $ # : $ > : : - - - > 0.f.q.$.<.2.2.2.2.2.<.O.2.2.2.2.2.<.2.2.2.2.2.2.8.h.f.H : : - # - - : : : : - - $ - $ - - - ",
"$ $ $ $ $ - # - # $ - : : : - - $ 9 a.h.d.<.O.2.2.2.2.2.2.2.2.2.2.2.<.$.2.O.2.2.2.2.q.g.f.P - # # - - - : : : - - - : $ $ - - - ",
"- - - - - - - # : - - : : : - - : q g.h.g.4.<.2.2.2.2.2.2.2.2.2.2.2.2.2.2.2.2.2.2.3.s.g.g.W : - # : # - : : > : - : : : : > : > ",
": : - - : - - $ : - - > : : - - > t f.h.h.i.2.2.2.2.2.2.2.2.2.2.2.2.2.2.2.2.2.2.2.3.f.h.h.) > - $ : - $ : : : - - : : : - : : > ",
"$ $ $ $ - - - $ - - - > : - - # : H g.h.h.g.8.2.2.2.2.2.2.2.2.2.2.2.2.2.2.2.2.2.2.i.h.h.h.*., - # - - : > : - - - : : $ $ # - - ",
": - - # : $ $ $ : - : > : : - - > P g.g.h.g.d.<.2.2.2.2.2.2.2.2.2.2.2.2.2.2.$.<.9.g.h.h.h.1., $ - - : : > : : $ $ : - - : : - - ",
": : - - : - - $ # - - > > - - - : / g.g.g.g.g.<.2.2.2.2.2.2.2.2.2.2.2.2.2.2.<.8.a.h.h.h.h.1.9 - # - - - > > - $ - : : $ : - - - ",
"- : : $ - : - # - - - : - - - - > I h.h.h.h.s.*.s.4.2.2.2.2.2.2.2.2.2.2.2.3.w.1.1.g.h.h.h.1.9 - # - - - : - : $ - : : $ : : $ $ ",
"- - - $ - - : $ - - - - - - - - - e 1.h.h.g.` ) h.s.9.4.2.2.2.2.2.2.O.<.9.u.h.1.P a.h.h.f.I > - $ - - - : : - - - - : $ : > $ : ",
"$ : - $ : : - # - - - - - > - - > : t / ..P 9 T h.h.h.f.w.( ! ^ R R 2.d.f.g.g.;.0 u ` ' J < > - # - - $ : : : - - : - - : : $ : ",
"$ > : $ : : : # - $ - - > - - - > - - , , > > P f.h.h.h.s.L , , 9 9 1.g.g.g.g.=.9 $ , , - > - - # - - # : : : - : : - - : : $ : ",
"$ : : $ - : - $ - - $ - : : : - : - - : - $ - G d.h.h.h.f.L - - - < a.h.h.h.h...< $ : : $ : : : # - - - - : : - - : - - : - # : ",
"$ : - - - - - # - $ : : : - - - : : - > - $ > u s.h.h.h.f.L : : > 1 i.h.h.h.h.) > $ : : $ $ : $ $ : # - - - : - - : - - > - $ > ",
"$ : : $ - : - # - - - : - - $ - : - - > - # - 0 1.h.h.h.h./ : : - e f.h.h.h.h.H > $ : - $ $ : - # - - - > - - - $ : : - > - # : ",
"$ - - $ : - - # - - : : : > : - - - - - - $ : 0 ;.h.h.h.h.;.< : - L h.h.h.h.h.D : $ : : $ : - - # - - : > - > > - - : - - - - - ",
"$ : : # : > - $ - : - > > - - - - - - - - - : 9 =.h.h.h.h.0.9 - > Q g.h.h.h.h.y - $ : : $ - > : # - - - > > - - - : - # - > $ > ",
"$ - : - : - - # $ - : - : - : - > - - - - - : , ..h.h.h.h.f.; . X ` h.h.h.h.h.0 : $ - : - : - $ $ - - - > - - - - > - - - - # > ",
"# : : - : - - $ - - - - - : - $ - - * : : $ @ @ ! h.h.h.h.h.3   % %.h.h.h.h.i.& @ # - > $ : - - # - - - - - > $ $ : - $ > > - - ",
"$ : : $ > - - # - : $ - > - - $ - > - - $ .     K h.h.h.h.h.r   = -.h.h.h.h.:.O     @ - $ > : - $ - - - - > - - - - : - : > # : ",
"- : - $ : : - - - : - : : : - - : - $ - X       j h.h.h.h.g.r   = -.g.h.h.h. .o       # # - : - # - : - > : - - - - - - : : - - ",
"# : : $ - > - # : $ - : : : - - : : $ $         & :.h.h.h.:.&   X U g.g.h.p.k         # $ - : : # - - $ : - > - $ > - # - > - : ",
"# : : $ - : - # - : - - : : - - : : - : @ .       w | 7.| w       & Y :.-.F %       + - $ - - - - - : - - : - - - > - - : > # > ",
"- : - - - > - # $ - - : - - : - : : # : : $ @ .     X & X           X % % X   . + # - : $ - > - # - : - : - - > - > - # : - - - ",
"$ : - $ - - - - : - - : - > : - - : - : : # - - - @ @ o o X . . . X o X o @ $ : - # > - # - - - # - - - : - > : - - : - : : $ - ",
"$ - - $ - : : # - : - - : : - - - - - : : - - > - : - - : - - - - - - $ - > $ > - - - : - - : : $ - > - - : : - - - - - : : # - ",
"- : : $ - : : - - : : > : : $ $ : : : : : # - > - > - - - - - - - - - > - > > > > $ : > # - > : - - : - : : > $ $ - - - > > - - ",
"$ : : $ - - : # : - : : : : - - : - : : : - - : - > > - - - : - - > : > - - $ > > $ > > # - - : # - - > : - > - - > - - : > # - "
};
