/* XPM */
static char *character_left[] = {
/* columns rows colors chars-per-pixel */
"64 64 138 2 ",
"   c #445539",
".  c #455A3D",
"X  c #495A3E",
"o  c #465E40",
"O  c #476042",
"+  c #496445",
"@  c #476C4B",
"#  c #4A6E4D",
"$  c #55654A",
"%  c #5D6C4D",
"&  c #4C714F",
"*  c #52734E",
"=  c #5A794C",
"-  c #4E7350",
";  c #507553",
":  c #557857",
">  c #577A59",
",  c #5B7C5C",
"<  c #766C43",
"1  c #68714D",
"2  c #616F56",
"3  c #65735A",
"4  c #6B7961",
"5  c #B26633",
"6  c #C0652F",
"7  c #CB652E",
"8  c #CC6831",
"9  c #806D43",
"0  c #D37C4C",
"q  c #66804A",
"w  c #7D8D47",
"e  c #748950",
"r  c #638363",
"t  c #6C896B",
"y  c #798265",
"u  c #738D6E",
"i  c #718E71",
"p  c #769176",
"a  c #7B9374",
"s  c #7A9579",
"d  c #7F997E",
"f  c #93983F",
"g  c #989C3F",
"h  c #B7B03D",
"j  c #CABB3A",
"k  c #DEC737",
"l  c #EDD036",
"z  c #F6D433",
"x  c #F9D632",
"c  c #FFDA30",
"v  c #FFDC3C",
"b  c #859346",
"n  c #8C9542",
"m  c #BAAC4E",
"M  c #ADA354",
"N  c #B3A850",
"B  c #8B8D62",
"V  c #858B6A",
"C  c #858D71",
"Z  c #899E7E",
"A  c #AAB06B",
"S  c #CB8559",
"D  c #D68B5E",
"F  c #C9B647",
"G  c #CDB945",
"H  c #DD9D77",
"J  c #FEDD45",
"K  c #FEDE4B",
"L  c #FEE056",
"P  c #FEE15B",
"I  c #E6D362",
"U  c #FDE266",
"Y  c #FDE36F",
"T  c #FDE576",
"R  c #859D83",
"E  c #949B80",
"W  c #87A086",
"Q  c #8DA48A",
"!  c #93A485",
"~  c #9EA488",
"^  c #9BAA8A",
"/  c #96AA93",
"(  c #9BAF98",
")  c #9FB19B",
"_  c #A6AD98",
"`  c #A4B293",
"'  c #A1B39D",
"]  c #A9BAA5",
"[  c #AFBEAA",
"{  c #B6BFA2",
"}  c #B0BFAB",
"|  c #B8C0A2",
" . c #B2C1AD",
".. c #BCC5AD",
"X. c #B8C6B3",
"o. c #BCC8B5",
"O. c #BFCBB9",
"+. c #FBEA9A",
"@. c #C1C6B7",
"#. c #CBCEB1",
"$. c #C4CEBD",
"%. c #CFD1B4",
"&. c #D2D3B5",
"*. c #D8D7BB",
"=. c #DDDBBE",
"-. c #EAC9B0",
";. c #ECD4BE",
":. c #F8EAA5",
">. c #FBEEAD",
",. c #FBEFB4",
"<. c #FBF0BC",
"1. c #C7D0C0",
"2. c #CAD3C3",
"3. c #DEDCC0",
"4. c #D3DACC",
"5. c #D8DED0",
"6. c #E2DEC1",
"7. c #DDE1D4",
"8. c #E4E0C4",
"9. c #E6E2C8",
"0. c #E9E5CC",
"q. c #FAF1C6",
"w. c #FAF2CA",
"e. c #EAE7D2",
"r. c #ECE9D4",
"t. c #E6E9DE",
"y. c #EDECDB",
"u. c #F0E3D4",
"i. c #F1EDDC",
"p. c #FAF4D7",
"a. c #FAF5DB",
"s. c #EBEDE2",
"d. c #EEF0E5",
"f. c #F3F2E5",
"g. c #F9F6E3",
"h. c #F5F5EB",
"j. c #F8F7ED",
"k. c #F9F8EF",
/* pixels */
"- - & & @ & & & @ - - - - - - - @ ; # # ; ; * - - - - - - - - & - - & & ; - & - - - - - - @ & & # # - - - - - - - & - & & - - - ",
"- - - & # - - & @ & @ - - : - & # - ; @ ; # & & & - ; - - - - - & & & & & & - - - - - - - # - & & @ # - & - - - & & - - @ - - - ",
"& & ; & - & & & @ - # # - - - & # ; - # & ; # # & # # # # # - # - # # # # # & & # # - - - # - - - @ & # # - - - # # - - & - - & ",
"# & - & # # - - # - - # - - & & @ - ; # ; ; # # & & & & & - & & & & & & & & ; & - # # - - # # - - @ - - & - - & & # & - # - - # ",
"& # ; & # & - & @ - # - & # - - # ; - # - - @ - - - - - ; - - - - & & & & & & ; - - # - - # - - @ # - # & - & - - # - & # - - # ",
"& # ; & # & * & @ - # # - - - - # ; # - ; - # - & ; > , t s R Q W d i r ; ; - * - - # - - @ - - - @ - # # & - - - - - & - - - - ",
"; & ; ; # & & & @ & # # # - - - # ; - # ; - # * : t / $.7.s.h.j.h.s.7.2.] t ; - - - # - - @ - - - @ - # & & - - - # - & # - # @ ",
"& # & & & & ; & @ - - # - - - - @ - - # ; # * u ] t.k.k.k.k.k.k.k.k.k.j.h.s.X.p : - # - - - # - # @ - # & - - & - # - - - - - # ",
"- # - - & & & & @ & & & & & & - & & & * 1 9 V 5.h.k.k.k.k.k.k.k.k.k.k.k.k.k.k.7./ : - - - # # - - @ - @ & - & - - @ - - # - - @ ",
"- # - & @ - & & @ & & & ; & - - & & & < 6 8 H j.k.k.k.k.k.k.k.k.k.k.k.k.k.k.k.k.h.[ , - - # - - @ @ - & & ; - - - - & - # - - # ",
"- # - - # - - & & & & & ; - - - # & 1 5 7 8 H k.k.k.k.k.k.k.k.k.k.k.k.k.k.k.k.k.k.d.[ , - # - - - @ & - & - - - - # - - @ - - # ",
"- # & - & - & & @ & & & - - - - # & < 6 7 0 6.k.k.k.k.k.k.k.k.k.k.k.k.k.k.k.k.k.k.k.d.' > # - - - @ & - - - - & - # - - @ - - # ",
"- @ - - & & & & @ & & & - & - - # & y S D -.j.k.k.k.k.k.k.k.k.k.k.k.k.k.k.k.k.k.k.k.k.s.d # - - & @ - - & - & - - @ - - # - - - ",
"- & - - & - - & @ & & & & & - & @ : } u.i.j.k.k.k.k.k.k.k.k.k.k.k.k.k.k.k.k.k.k.k.k.k.k.1.> - - & @ - # # & & - - @ - - # - - # ",
"- # - - & & - - @ & & & - ; - & & i y.k.k.k.k.k.k.k.k.k.k.k.k.k.k.k.k.k.k.k.k.k.k.k.k.k.s.R - - - @ & - & - - - - @ - - @ - - # ",
"- @ - - & & - & @ & & & - - - - - ) k.k.k.k.k.k.k.k.k.k.k.k.k.k.k.k.k.k.k.k.k.k.k.k.k.k.h.o.: - - @ & & # - - - - # - - @ - - - ",
"- @ - - # - - - & - - & - - - - , 2.g.g.g.g.a.a.p.p.g.h.k.k.k.k.k.k.k.k.k.k.k.k.k.k.k.k.k.s.r & & # - - & & - - & & - - & - - & ",
"- @ - - @ - - - @ - & & - & - - e I U U P P L L L P U +.p.j.k.k.k.k.k.k.k.k.k.k.k.k.k.k.k.d.R - & @ & & & & & & ; & - - @ - & & ",
"- @ - - # & - @ @ - # & & & - - n z c c c c c c c c c c P ,.j.k.k.k.k.k.k.k.k.k.k.k.k.k.k.h.' & & @ - & & - & ; - & & & & - - # ",
"- - - - @ & - - @ # - - & & - - f x c c c c c c c c c c c L q.k.k.k.k.k.k.k.k.k.k.k.k.k.k.k. .& - @ & & & & & ; & & & & & - - # ",
"& & - - - - - - # & - - - - - & g c c c c c c c x c c c c c T g.k.k.k.k.k.k.k.k.k.k.k.k.k.k.X.- - # & - & - - - - @ - & # ; - # ",
"; & ; - @ & & - & - - - - - - - g x c c c c c x m G c c c c L w.k.k.k.k.k.k.k.k.k.k.k.k.k.k. .& - # - & - - & ; - # - - & ; - # ",
"# # - & @ & - & @ & - - - - - & n x c c c c c x B M c c c c v <.k.k.k.k.k.k.k.k.k.k.k.k.k.k.] - & @ & & - & & - - # - - & - - # ",
"& & - - & - & & @ & & - - - & - w l c c c c c x B M c c c c v <.k.k.k.k.k.k.k.k.k.k.k.k.k.h.Q & & # & & & ; ; & - & - - @ ; - & ",
"& & & ; & - ; & # & & & - & & - q k c c c c c x B M c c c c K q.k.k.k.k.k.k.k.k.k.k.k.k.k.d.i ; & # & & & - & - & & - & # - - - ",
"& & # & & - - ; & & - & - & - - & h c c c c c x N F c c c c Y g.k.k.k.k.k.k.k.k.k.k.k.k.h.4.> ; - & & & & - - - - # - - # # # & ",
"* & & & - - & - @ & & - - - - & # b x c c c c c z x c c c J ,.k.k.k.k.k.k.k.k.k.k.k.k.k.d.) ; & ; # & & & - - - & # - - - - - & ",
"- & & & - ; - - @ - - & & - - & # = j c c c c c c c c c J +.h.k.k.k.k.k.k.k.k.k.k.k.k.k.7.t - & - @ - - & & & - & # & - - - - - ",
"- & & - - ; ; & # - - - # - - & # * b l c v v v v J L Y ,.h.k.k.k.k.k.k.k.k.k.k.k.k.k.d.( ; ; ; - # - & & & - - & # - - - - - - ",
"& & # & & & & & # - - # - - - - @ & = A :.>.>.,.,.<.w.g.k.k.k.k.k.k.k.k.k.k.k.k.k.k.h.$., # & & & # & - & - - - - # & # # & # # ",
"& & & - - - & - - - - & - - - - & & & r O.h.k.k.k.k.k.k.k.k.k.k.k.k.k.k.k.k.k.k.k.h.4.t - ; ; & - & & ; & - - - & # - - - - - - ",
"- - - - & & - ; - - & & - - - - & - - ; t 2.h.k.k.k.k.k.k.k.k.k.k.k.k.k.k.k.k.k.k.4.s - - & - & - ; & & - - - - - - - - - - & - ",
"- - - - & ; & ; & & & - - - & & - - ; - & r  .d.j.j.k.k.k.k.k.k.k.k.k.k.k.k.k.h.$.t & - - - - - - - # - - - - - & - ; - ; - - - ",
"- - # - & & & & & & & & & & - & & & & & & & > / 5.h.k.k.k.k.k.k.k.k.k.k.k.k.h.t.d & & & & - # - - - - # - & & - # & & & & & & - ",
"# # & & & & & & & - & & & & & - - - & - & & & & r ..g.h.h.k.k.k.k.k.k.k.h.y.9.3.u & # & & # - & # & - # - & & & - & - & & & & & ",
"- # # - - - & & # & & & - - - - & & & & & & & & & ! 8.0.y.y.g.j.k.k.k.k.d.9.8.*.u & & & - & - # & & # - # ; - & & # & & & & - & ",
"- @ - - & & & & - @ # & - - - - & & & & & & & & - Z =.8.8.8.e.j.k.k.k.k.y.8.8.&.t & & & - & & - - & # & & ; & ; - & & & & & & & ",
"@ @ @ @ # # & # # # # & - - - - # # # # & & & & - p *.8.8.8.r.j.k.k.k.k.r.8.8.#.r @ @ # @ # @ & @ # @ & & & & ; & # # & & @ & & ",
"- - - - & & & # @ & # & - - - - & ; - - ; ; ; ; & t %.8.8.8.y.k.k.k.k.h.r.8.8.| , - - @ & - - & # @ & # & & - ; & & ; - ; - & - ",
"- - - @ & & & & # & & & - - - - & - - - & & & ; & > | 8.8.8.y.k.k.k.k.h.e.8.8.^ - - - - & # - & # # - & & ; - - & # ; - - & & - ",
"@ - @ # # & - - # # - - - - - - # - & & # # # & & - Z 6.8.8.i.k.k.k.k.h.e.8.*.u & @ & & & # & & & # & & - - - - & & - & & @ # & ",
"- - - & @ - - @ @ - - - - - - & # - & & - - & & - - r %.8.8.f.k.k.k.k.g.9.8.| ; & - & & & @ & & # # & & - : - - & @ - - & - - & ",
"- - - & @ - - & @ - @ - - ; - # # - & # & & & & & & : ` 8.8.f.k.k.k.k.h.8.&.a - & - - - & # - - & # & # & ; ; & & & - & @ - & & ",
"# - - - - & - & @ # - & - - - - # - - & - - & & & # & ! 6.8.f.k.k.k.k.f.=.! ; & & & & - - - & * & @ & & & & - & & @ - - & - - & ",
"& # - & @ # - - # & & # & - & & & & - # - ; & & - - - ! =.9.y.j.k.k.h.y...> ; & & & # & & & & & & # & & & - - & & # - - # ; ; & ",
"- @ ; & & - ; @ # & # - & - - - & - & & - - & - - - - Q =.=.0.f.j.h.h.i.' ; & - & & & - & # & & & # & # & & & - - & - & # - ; @ ",
"& @ ; ; @ - - - @ & # & & - - - & - & & - & # - - - q ! =.9.e.j.k.j.k.h.' * & ; - & & ; - # & ; & @ & # # - - - & & ; & - ; & # ",
"- - - - # # - & @ & & & & - - - & - & & - & # & - ; @ Z =.=.r.k.k.k.k.h./ * & - ; - & & - # & & & @ & & & & - - - & - & # - & @ ",
"& # - - & & & & # & & # - - & & # & - # ; & # - & & & a *.8.r.j.k.k.k.d.R - @ - - - # - - - & - & @ & & # ; & & & # & - & ; & @ ",
"; # & - & & & & # & # & - - - & # - - & ; & # - - & # Z =.8.e.j.k.k.k.s.s - & # & - # - - # # - & @ & & # ; & & & # ; & & ; & @ ",
"; # - & & & & # @ & & & ; & ; - & & & # ; & # - - & & ^ 6.8.r.k.k.k.k.d.R - - - - - # & & # - & & @ & & & ; # ; ; & & & & ; & @ ",
"& # - & # & ; & # & - & ; ; & - # ; - # & & & & ; ; & ^ 8.8.y.k.k.k.k.d.R - @ - ; & # - - # - - - @ & - # ; ; ; & & ; & # & & & ",
"& # & ; & & & & @ & & & - - & - # * # # & - # - & & @ ~ 8.8.y.k.k.k.k.s.R $ @ $ & & @ - - & - - # @ - & & - ; # & & - & # & & & ",
"- # & - & & & & @ & & & ; & - & # & ; # & - # + O . X ~ 8.8.i.k.k.k.h.s.4   o o + @ @ - ; # - - & @ # - & - # ; & & & - # & ; & ",
"; # & ; & ; & & @ - & & & & & & # & ; # ; + .       X ~ 8.8.y.k.k.k.h.s.4 o         o @ - # - - & @ - # @ # - & & & & ; & ; ; @ ",
"& # - & # & & ; @ & & & - ; ; & # ; # # @           X C ;.8.i.k.k.k.k.5.4           o o # # - - - @ - - & ; ; - & @ & & @ - & & ",
"& @ - ; & - - & @ - & @ ; - - - # - - # +             % { ;.e.h.k.k.j.1.$             . @ @ - - & # & & & - - - & & - - # & - & ",
"- # - & & & & & @ - - - - - - # # - - @ # o X           $ C E _ 5.s.@.4               @ # # - - & # ; & & - - & & & - - # - - & ",
"- & & - @ & ; & # - - # - - - ; - - - # - # + o               o 2 3 $     o     O @ @ - - # - - & # & & & & - - - & & - # - & & ",
"; @ - & & & & & @ - # - # # ; - # - - # - - # # # + o o . X X     o   o o o o + & - & ; - # # - & @ & & & & & ; - & & - & - & # ",
"- & & & @ & & & @ & - & & # ; ; # - # # - - # # - - - # # - # @ # # $ & # - - - ; ; & & & # & & ; @ # & & & & ; & # & & # & - # ",
"- & & & & & ; ; # & - & ; ; ; # # - - # - - # - - - ; - - - # * - - - & - - - - - & @ & ; & & & ; # # ; - - - - & # ; & & - ; # ",
"- & ; ; @ & & - @ ; & ; ; ; ; & # - - - ; - # - - - - - - - - - - - - - - & - & ; ; & ; & # # & & # ; & ; ; & ; - & & & & - & & ",
"& & & & @ & ; & @ & & & & & & & # - - # - - # # @ # - # @ # @ # # # @ & & & # @ @ # & & & @ & ; & @ & & & - & & & # ; & # ; & # "
};
