/* XPM */
static char *collectable[] = {
/* columns rows colors chars-per-pixel */
"64 64 206 2 ",
"   c #755B1B",
".  c #735E24",
"X  c #796929",
"o  c #636C3F",
"O  c #6A6A3B",
"+  c #726733",
"@  c #7A6D35",
"#  c #77703A",
"$  c #7B783D",
"%  c #476B4A",
"&  c #4A6E4D",
"*  c #546C48",
"=  c #5B6F49",
"-  c #4C714F",
";  c #5F7047",
":  c #53724E",
">  c #5B734C",
",  c #4E7350",
"<  c #517552",
"1  c #5B7652",
"2  c #5F7851",
"3  c #636E43",
"4  c #6A6F41",
"5  c #697446",
"6  c #637349",
"7  c #66794C",
"8  c #6B7C4E",
"9  c #757640",
"0  c #7A7849",
"q  c #647B54",
"w  c #9C6A0D",
"e  c #977019",
"r  c #A3791C",
"t  c #806524",
"y  c #846C24",
"u  c #87702F",
"i  c #8B742E",
"p  c #937729",
"a  c #997829",
"s  c #857C3B",
"d  c #947D36",
"f  c #997F34",
"g  c #A57C22",
"h  c #7E854E",
"j  c #748655",
"k  c #76865A",
"l  c #788758",
"z  c #7C8A5F",
"x  c #7D8D62",
"c  c #B1861F",
"v  c #BB911E",
"b  c #9D802C",
"n  c #8E833F",
"m  c #9C8331",
"M  c #9C8B3F",
"N  c #A98229",
"B  c #B28622",
"V  c #B88B24",
"C  c #B48E2A",
"Z  c #BC9523",
"A  c #B7922C",
"S  c #BE9E2C",
"D  c #A18334",
"F  c #AF8E35",
"G  c #B28D33",
"H  c #B99837",
"J  c #C2890C",
"K  c #C08E18",
"L  c #C3921A",
"P  c #C9991B",
"I  c #CAA31E",
"U  c #CAA91F",
"Y  c #C29624",
"T  c #C29A23",
"R  c #C49B2B",
"E  c #C69E34",
"W  c #CBA225",
"Q  c #C9A524",
"!  c #C9A42C",
"~  c #CDAC2A",
"^  c #D5A927",
"/  c #D4A52C",
"(  c #D9B82A",
")  c #CAA333",
"_  c #CDA934",
"`  c #C8A638",
"'  c #D2AA36",
"]  c #CEB234",
"[  c #DBBB33",
"{  c #D5B63C",
"}  c #E5B737",
"|  c #DFC02D",
" . c #E1C42A",
".. c #E6CB2A",
"X. c #EACF29",
"o. c #EBD32B",
"O. c #EFD82E",
"+. c #F2DC2C",
"@. c #E5C933",
"#. c #E9CE33",
"$. c #E6C838",
"%. c #E8CE3C",
"&. c #EBD232",
"*. c #EAD03B",
"=. c #EED93E",
"-. c #F6E038",
";. c #8D8545",
":. c #83854A",
">. c #8C8B49",
",. c #9A8D46",
"<. c #989449",
"1. c #828B50",
"2. c #898E50",
"3. c #8E9354",
"4. c #A89948",
"5. c #B89C46",
"6. c #A49B51",
"7. c #B39E55",
"8. c #BEA343",
"9. c #BAA44A",
"0. c #BDB34D",
"q. c #AAA259",
"w. c #B3A452",
"e. c #BAAB54",
"r. c #BDAB57",
"t. c #808E61",
"y. c #839163",
"u. c #BEB064",
"i. c #BFB26B",
"p. c #C49D41",
"a. c #C2A444",
"s. c #C8AA43",
"d. c #C1A64A",
"f. c #C3AB4C",
"g. c #CCAB4B",
"h. c #D4AF4D",
"j. c #CEB347",
"k. c #CDB24A",
"l. c #D7B342",
"z. c #D2B14A",
"x. c #DCBA4A",
"c. c #C6A753",
"v. c #C3A853",
"b. c #C6AD5E",
"n. c #CAB457",
"m. c #CEB25D",
"M. c #D3B253",
"N. c #D7BB52",
"B. c #D9BD55",
"V. c #D3B45B",
"C. c #D7B95A",
"Z. c #DABD59",
"A. c #E4B941",
"S. c #CEAF60",
"D. c #C1B36B",
"F. c #CEB469",
"G. c #D1B666",
"H. c #D9BC63",
"J. c #D5BB6C",
"K. c #DCC144",
"L. c #DDC34A",
"P. c #DCC454",
"I. c #DBC65A",
"U. c #DCC25D",
"Y. c #E5CC43",
"T. c #E9CE42",
"R. c #E2C44D",
"E. c #E7C848",
"W. c #F3CB4B",
"Q. c #EAD045",
"!. c #EFDA46",
"~. c #EBD24B",
"^. c #EFD94D",
"/. c #F1DB44",
"(. c #F0DB4B",
"). c #E4CC55",
"_. c #E8CD59",
"`. c #ECD553",
"'. c #EED953",
"]. c #ECD35C",
"[. c #EEDA5B",
"{. c #F3D452",
"}. c #F1DD54",
"|. c #F6D95C",
" X c #F0DD5C",
".X c #F6E44F",
"XX c #DBC063",
"oX c #DCC36C",
"OX c #DEC571",
"+X c #E6CD60",
"@X c #EAD766",
"#X c #EFDC63",
"$X c #F2D462",
"%X c #F1DD63",
"&X c #F1DE6D",
"*X c #EEDE71",
"=X c #EEDE7B",
"-X c #F0DF71",
";X c #F6E364",
":X c #F4E26C",
">X c #F4E273",
",X c #F7E876",
"<X c #F3E27A",
"1X c #F7EA7C",
"2X c #F8E97B",
"3X c #F2E481",
/* pixels */
", & , , , - , , - , , & & & - , , - , & , , & , , , & - - - - & , - & & & - - & - - - - - - - & - & & & - - , - - , , - - - , , ",
", , - - - - & , & - , & , - - , - & , , & & - , , , & - - , , , - - , - , , , - & , & & - - - , , , & & - & , , - - , , - - , - ",
", , - , , - - - & , & , - - - - & , , - - , & , - - - & - - , , - , , , - - - - & , - & & - - - - , , & , & & - - - - < , - , - ",
"< , - , , , - - , & - & - - - - - , , & & , , & - - & & - - , - - & & - - & - - & , & % - - - - & , - , , & & & - - - , , - , - ",
", , , , , , & - & & & & - & - - - , & & & & & & & & & & & & & & & & & & & & & & & & % & & & & & & & , & & & & % - - , , , , , , ",
", , < , - - - - & , , , & - , - - , & & & , & - - & - & & & , & - & & - & & & & - - & & & & & & & & & & & & , & % - , , , , , , ",
", , , < , - - < , , , , , , , , < - , < - < < - - , - - - - , , - - , - - - - , , , , - & - - - , & , & & % - & & - , , , < , , ",
"< < , , , - & , , , , , , , , , < - < - - , - - - , , , , - , , , - - - - , , , , , , , , , - - , , , & & % , - & - , < , , , , ",
"< < , , - - & - , , , , & & , , , , < - & - - - , < < - & , - , - - & & - - : - - - - - - - - - - , - - - & - , & , , < , , , , ",
"< , , , - - & , , , & & & % % & & - , & % & & & - - & & & & & , - - & & - - - - & & % - - - - % % - , - - % % - - , , < , < , , ",
"< < , , - & - , , , & , , , , , , - , , - < - < - , - - , , , , & , - , - - - 1 1 q q 1 : : - - & , - - - % , , , , , < , , , - ",
"< < , , - & - , , , & , , , , & - , - , < , , , - , - , , , - : - , , < 2 h q.9.8.` 8.9.r.3.8 : & , - - - % , , & , , , , , - - ",
"< < < - & & - , , , % , , , , , - , - - - < - , , , - , - - - - - , > :.9.j.z.P.@X%X%X_.N.k.f.<.k < , - - % - % - - , , , , - - ",
", < - , & & & , , , % , , , & & & - - & & - - - & - - & - - & & & 2 ,.z.P.$X>X<X<X<X-X<X<X>X@XN.q.k < - , % & - - - - , , , , - ",
"- , - - - & - - , , & , < , , & - - & & & & & & - , - & - - - & q 4.x.].-X-X%X[.[.^.^.^.'.#X:X:X_.f.2.< , % , , - - - , , - - - ",
", , - , , & - - , , & , < , & & - , , : - - , , , , - - - - - > 4.x.$X&X%X}.`.{.^.^.^.[.[.[.#X#X:X[.N.l , % , & & - - - , - , , ",
"- , - < , - - - , - & : - , - % - , , , , , , , , - , , , < - >.{ _.:X X'.^.^.^.^.^.'.j.F M 9.L.#X;X].0.7 % , , & , , , & , , < ",
", - - < , - - < , , - , , , - - , - , < < < , , & - , , , , q ` A.@X X^.^.^.^.^.!.^.j.$ ; o o M L. X;XP.6.% , & & & & , , , , , ",
"- , < , - & - < - - & , , - - - , , , , - - , , & , , , , , ,.' R. X^.(.(.^.(./.!.Y.h & , - : o 8.^. X|.k.= & & & & & , , < , , ",
"- - < - < - - < - - & , , , & % , , < , % % - - & & & & & > H / +X(.(.(././././.!.K.j & < - - : <.Y.^.|.R.:., , & & & , , - , , ",
", < , - - & & - , , & , , - & & < , - - & - - - - - , , & 8 E /  X(././././././.=.[ k & , , , 1 <.~.^.{.E.4., & - - - < , - < - ",
", - - - , & - , < - & , < - & - < , - - % - , , & , , < : >.Y ^ }./././././.=././.| 0.- , , < 1.k.~.[.{.{.8., , & & - - - - - - ",
"- < - , - - & - , , - < , - % % - , - , & - , < & , , , - <.K / (./././.!.(.(.(.}.'.] 0.t.j <.s.L.[.[.~.W.R 1 , - & , < - , < - ",
"< - , < , - - - - - % < - - - - - , - - & - , , - , , , & <.K L T.(.}.}.}.}.}. X X X].{ ] ] ] x.[.[.`.Y.$.R q & - - < < - < - < ",
"< < < , , - - , , , & , - - - - < , < , % - , < , , , , - >.L J Y E.}. X%X X;X#X%X[.#X X[.[.`.`.`.`.~.$.} A 1 , , & , , , , , < ",
"< < < - , - - , - - & - - , - - , , , < % - , , , - , , - h _ ^ W Y L.#X%X#X[.[.[.[.`.`.`.`.`.`.~.~.Q.} ^ C 1 & , & , , < , , , ",
", - < - , - - - - - & - - , - - , , , , - - , < , , - , - h P.[.~.' R K.[.[.[.[.`.`.`.~.~.~.Q.Q.T.T.$.^ ^ a : - , , , , , , , , ",
"< < - - - - & - , - & - - - - - < < < , - , , , , , , , - j I.%X_.{ ' ! { ^.`.~.~.~.~.~.T.T.T.T.T.Q.[ I W @ - , & & , , , , , , ",
"< - - , , - & - , , - - , < - - , , , , - - < , , , < < , 1.+XI.A R +Xx.) { ^.Q.Q.T.T.T.%.%.%.%.*.@.I P c 3 - - - - - - , , , , ",
"- & , - - - - - , < % , , , - & - - , , % , < < , , , , , q.Z.A V C.&X%XP.) [ T.T.%.Y.%.%.*.*.#.&.U P R i & - - - - - - , , - , ",
", < , , - % - - , - % , , , , & , , , < % < < , , , , < t.n.H A V.=X:X:X&XU.E [ %.#.%.#.#.*.&.&.^ P / g 3 % - , - - , , , , - - ",
", < , , , - - - , , % - , , , & , - , , % , , , < , < x i.H 8.m.3X,X&XP._ ).U.R ( #.#.#.o.o...I Y h.N # - % - - - & , , , , , , ",
", , , , , & & , - , & - , < , & < , , , % , , < , , t.D.p.c.C.3X,X&Xk.R { L.<XN.T  ...X. .U L E M.N u : , % , , - & - - , , < - ",
"- , - , , & & , , - % , , , , - < - - , & - , : 1 y.D.r.F.J.3X<X&Xh.R l.R N.2XZ./ Y T Z Y ) h.c.a + > , , % , , , & - , , - , - ",
"- , , & < & , < < - % - , - - & , - - , & , < < y.i.S.F.oX3X2X>Xz.E x.B r ` XXC.M.h.h.M.M.d.f t 4 : , , , % , & , & - , , & , < ",
", , , , < , - , , < % , , , - & , - - : % < < t.i.S.F.OX=X2X*Xk.a.B.B w e X y p f D D p y X O = & - , , & % , & , - - , , , , < ",
", - - < , - - - , < & , , , - & - - - - & , t.u.D.S.OX=X1X*Xk.g.XXB w A <.: > 6 5 4 4 o 6 : - - & - - & , % , - , & , , - , , < ",
"- - , < - - & - - - & < , , - & - , - , & z u.b.S.OX*X<X&Xs.C g.B w C P.<., , , < < , & , - - & & - - , - % - - - , - & - < , , ",
", , , , - & & - , - & , , , & & - - < < x u.v.F.oX&X:X%X` c N m i i F ` s < , , , , - & , , - - & - - < , % - & , , , , , < , , ",
", < , , - & & , , , & < : < - & : < < z r.e.J.XX#X;X[.] m $ 6 > 1 > 9 s 6 , , , , , , & , , - - & : , < , % , , , , , < , , , - ",
", , , , < - & , < - & < < - - & , , z r.9.J.H. X.X{._ b 5 : - - - - < > - - - - < < < & - < < - & & - , & & , , , , , , , , , , ",
", , - , , - - , - - & < < < - & - l r.9.J.C.}..X/.~ B ;.: - - - , , - - - - - - - - < & < - - & & , , , - & & , , , , , , - , , ",
", , , , - & - , - - % < - - - & k e.9.J.C.(.-.=.! e p 9 : - - - - - - - - - & % & % - & - - - & & - , , & & & & & & , - , , , , ",
", , < - , - - , < - % - < < < l e.8.J.B.!.-.O.~ a 9 & , - < < < - < - - < , - - & - - & < , < - - , , - & & & - - , , , , , - , ",
", - - - , , - , - - % < < < j e.d.G.B.=.+.+.~ H q.7 - - , < , < - < , , , < < - - - - - - : , - - , , , , & & - - - - , , - - , ",
"- - - < - - & , < - % < < l w.d.m.P.Q.+.o.~ E N.m q & - , , , - - : - - - , - - & - - : - - - & - , < , - & , , - - - - - , , , ",
"< - - < < & & < < - & < j w.d.m.Z.T.O.X.Q r v.g y 1 & - - - - - - - - % - - & - & & - - - & - - - , , < - & - & , - , , , , , , ",
", < - < , & & , & < & j w.d.m.B.Y.O...Q r y X + o : - - , - - - - & & - - - - - - - - & - - - - - , , < & & - - , , , , , , < , ",
"- - - < - - - - - - l w.a.m.Z.Y.o.| Q g.m > 1 , & - , - < < , , , & , , , - , - , , , , , , , , , , , , - % - - , , , - - , , - ",
"- - - < - % & - - < ,.5.V.C.Y.#.| Q k.M.d - , , , - , - - < , - , , , , , , , , , , , , , & , , , , , < , % , , , - - - , , , & ",
"- - - < - - - , < - ,.H.N.E.@.( L c F r X : & , - - - - , < , - , , , & - - , , , , , - & - , , < , , < - % , , - & - - - , , - ",
"- < - - - % - - - - ;.M.K.@. .W N u @ + 3 , , & & - - - - < - - , , , , & % & - , , - - % - , , , , , , & & - , , - - , , - - - ",
"< < , < < - - - , & 0 R.@.[ W a.7.3 : & % - % & & & & & & , & & & - & & % - & & % % , , % & % , , - & - - & , , , & , , , , < , ",
": - , , , - - , , , 6 S T v G g.n < < < , , , - - < < , , , , , & , , , , - , , , , , , , , , , , , , , , - & , , - - , , , < - ",
", , < , , - - , & , 1 + . . .   * < , , , < - , < , - < , , , < , , , , , - - , , , - , , , , - , , - , , , , , - - , , , , , , ",
"- , < , - , , , - , < , , , : < < , , , , , , , - < < < , < , < , , , , , - - , , , , , , , , - , , , , , , , - - - , , < , , , ",
", , , , - - , , , , , , , , , , , - - - , , , , , , , , , - , , , , , - , , , , , , , , , & , , , < - - , - - - - - , , , , , - ",
", , , , - - - - , , - , - , , , - - - - , , & - , , , , - , , & , - , - & , & , , , , , , & - , , - - - - - - - , - , , - , - & ",
"- & , - - - - - , & - - & - - , & & , , , , & - , , , , - - & & , & & & & , , & , & & , - - , & - - - - , - , - - - , & - - , - ",
", , - - , - - - - , , - , & - , , & , , - & - , , , & & - , , , , - , & - , , - , , & & , & - - , - - & - - , - - , , - , - , - ",
", , , , - - - - - - - - - , , - & - , , & % & , , , , % - , , , , , , , - , - - & , & & & , , , , , , & , & - - - - , , - - , & ",
"< , - , , , - - - - & - & , - & - , , & - , , , , , % , - - , , - & , , - & - - & , , & & & , , - , - , , & & - - - , < , - , - ",
"< , , , , - & & - & & & & & - - - , - & & - % , , & % , - - - - - % & & , & & & & & % & & , & & & & , & - & % & - - & < , , , , ",
", , , , , & & & & & & & & & - - & , & % % & % , % % % % - % & % & - % % & % % & & & % % & & % & % & & & & % & & - & , , , , , - "
};
