/* XPM */
static char *exit_open[] = {
/* columns rows colors chars-per-pixel */
"64 64 112 2 ",
"   c #496E4C",
".  c #4B704E",
"X  c #4E7351",
"o  c #4C714F",
"O  c #4D7250",
"+  c #4B704F",
"@  c #476C4A",
"#  c #4A6F4D",
"$  c #527755",
"%  c #486D4B",
"&  c #4E7251",
"*  c #476B4A",
"=  c #4E7353",
"-  c #486D4C",
";  c #507452",
":  c #4B6F4D",
">  c #4F7351",
",  c #4C704F",
"<  c #4D714F",
"1  c #507553",
"2  c #4F7452",
"3  c #517654",
"4  c #507554",
"5  c #4A704E",
"6  c #4A7051",
"7  c #4D7454",
"8  c #4F7758",
"9  c #4B7458",
"0  c #497256",
"q  c #4D765A",
"w  c #4B7355",
"e  c #497050",
"r  c #466C4F",
"t  c #4B7253",
"y  c #4F7453",
"u  c #4E7252",
"i  c #486C4C",
"p  c #456A49",
"a  c #4B7151",
"s  c #486F4F",
"d  c #4E785F",
"f  c #507C63",
"g  c #4F806E",
"h  c #4B7C69",
"j  c #4D8275",
"k  c #466B4A",
"l  c #4F8A86",
"z  c #508F8F",
"x  c #509196",
"c  c #50959D",
"v  c #51867A",
"b  c #4A6E4D",
"n  c #4D7556",
"m  c #509BAA",
"M  c #51A3BB",
"N  c #50ABCE",
"B  c #476E52",
"V  c #496D4D",
"C  c #547956",
"Z  c #4D724F",
"A  c #517553",
"S  c #4A6E4C",
"D  c #48B5EB",
"F  c #3CB5F4",
"G  c #35B2F4",
"H  c #507552",
"J  c #4E7350",
"K  c #476B4B",
"L  c #476A4A",
"P  c #456949",
"I  c #486B4B",
"U  c #486C4D",
"Y  c #32ADF1",
"T  c #446A4D",
"R  c #486B4C",
"E  c #4B6F4F",
"W  c #466A4A",
"Q  c #46694A",
"!  c #527754",
"~  c #4E7250",
"^  c #4A704D",
"/  c #2DA4EA",
"(  c #289BE4",
")  c #2594DF",
"_  c #2391DC",
"`  c #218ED9",
"'  c #2697E1",
"]  c #2A9EE7",
"[  c #30AAEE",
"{  c #446848",
"}  c #2799E3",
"|  c #4C704E",
" . c #1E8CD6",
".. c #1A86D1",
"X. c #1581CC",
"o. c #117DC7",
"O. c #0E78BD",
"+. c #1D89D4",
"@. c #496D4E",
"#. c #4A6E4E",
"$. c #1884CF",
"%. c #457361",
"&. c #4D7151",
"*. c #4A6F4F",
"=. c #4C714E",
"-. c #517655",
";. c #4A6F4C",
":. c #557A58",
">. c #496D4B",
",. c #496C4C",
"<. c #4A6D4D",
"1. c white",
/* pixels */
"  . X .   . o O + @ # . # + . $ .   % . O   O   # .   & O + # O o * o   o = - ; # : > +   : : & o , , O O - < & < .   + O o . o ",
"% 1 & & 2 . X . O O o = . o . # X X . 3 # 2 4 5 6 7 8 9 0 q q q q 0 q 0 w e r t y u # O + & o - + = # i O p O , y # 4   .   ; o ",
"o .   = . . o O O X o # o   . O & # # O y a s q d f g h g g j j j j j g g h d d q 0 6 a o   k 1   , # O y + . @ + + = y O & + y ",
"2 O o X   O # . % o + o X o y O # o e 7 q d d g j l l z z x c c c c x x z l l v g g d 9 8 s u   + > . o & o + b o - + < + :   & ",
"; . . X O o o . & X # o   1 O # = n q f h j l z c m M M M N N N N N N M M M m c z l j h f d B a O & 1   1 4   O > + V + # 1 * C ",
"2 Z O 3 Z X . A . S < . o : 6 a q f g v l c m N N D D F F F G G G G F F F D D N M m c z v h d 9 t a X . # . 4 X 1 o - i , o   2 ",
"H H J Z . V K L P L I K U r 0 d h j z c M N D F G G G G G G G G Y G G G G G G F F D N M c l j h d B T R P K E W Q V   k o =   O ",
". Z ! ~ ~ I 3 H 2 ! 2 ^ t d f v l c M N F F G G G Y / / ( ) _ ` ` _ ' ( ] [ Y G G G F D N M c l g h 8 w X O o % + { ;   @ - + Z ",
"< 2 3 2 ~ L 2 A ~ ; = C d g v z M N D F G Y Y ] ( } _ ` _ ' ( ( } ' _ ` ` ` ` ) ] Y G G F F N m z j h q 8 s O #   Q O O +   & > ",
"3 | < J H P ~ 3 O = n f h l c M D F G Y / ' ' } _ ` ) ( } `  ...X.X.o.o.o.o.O.o.X..._ / Y G F D M c l h f t =   o W O < o o : 1 ",
"A Z 2 O ~ V < Z $ 7 d g l c N D G G / _ ` } _ ` ' ( _ +.X.O.o...` _ _ ) ' ' _  ...X.O.O. ./ G G D N c l g f t a # @.O ; b : : 2 ",
"2 ~ 3   < #.  3 7 d g l c N F G G ( $.' }  ._ } _ ..o.o. .' } ( ( } ( ( ( ] ] / ] ] } ) $.O.' Y G F N m l g d n a P % V : O , 2 ",
"X < > J . W 2 w 9 g l m N F G Y ) X.( ) ` ' ' ..o.o._ ' ' ) _ _ _ ` ` _ _ ` _ _ } ] } ] ] ' +.` [ G F N m l g q w E o & 1 O y C ",
"O H 3 X . i t d g v c N F G Y _ $.( _ _ } _ o.o.` ' ) _ ` +.+.+.+. .` `  .+.+. .+.` _ } } } ] ) ) [ G F N m v h 9 r X y # o & ! ",
"A 1 <   # #.n f v c N F G Y ` $.( _ _ ' +.o.o.} ) ` ` +.$.` } } ) ' _ ) _ _ ) } )  ...+.` ) ) } ' } Y G F N c v h r a   . o   > ",
"1 2 < < O B d v x M D G G ) X.' ) _ } ..O...} ` +.$..._ ' _ ` +.X.$.$.$.$.X.$...` _ ' ) +.$. .' ) ( ] Y G D M x g q w   @ + + 1 ",
"2 # . X a B g l m D G G ( $.` ' ` ' ..o.+.) ` ..$.) }  ...$.+._ ` `  .+.+.+.+.+...X...` ) _ ..+.) ) ) ] G G D m z %.0 7 1 b   o ",
"~ 2 | + 7 %.v c N F G / ....} ` '  .o.+.)  .$. .} ` ..$. .` +....... . .`  .+.+.+...+.$.X. .} ` ..` ) _ / G F N c j f w &.&   ~ ",
"X Z Z = d h z M D G Y _ X.) _ ) ) o.$.) +.X._ ( ..$. .+...+.` +...$.X.X.$... .` ` `  ...$.X.$._ _ +.+.) ) Y G D M z g 0 *.o o o ",
"X # 2 8 f j c N F G ] +.+.' _ ( $.o.'  .X._ } ..+. .$.+.` $.o.o.o.X.X.X.$.$.$.X.X.+._ ) ` ..$.X. .} +...) ( G G N c v f 0 < : Z ",
"| =.-.q g l M D G [ ) $.` _ ' ` o.) ` $. .( ....+... .X.o.o.X.$.+.+. . .+...+.+.+.+... .) ) +...X.+.} ..+._ [ G F M z h 9 *.b A ",
"~ ! 4 d j x N F G ( ` ..) _ } X..._ ....( ......+.+.o.o.X.+._ _ _ ` _ _ _ _ _ +...+._ +...` ) +...o.+.' $.` ] G F N c j %.o k . ",
"~ X w f z m D G [ } +.+.' )  .o.'  .$.)  ...+.+. .O.o.+._ `  . .+. . .+.+. .` _ _ ....` ` $. .' ` X.o.` _ ..' Y G D m l h w &.;.",
"> J q g z M F G ( ) ..` ) ( $.$._ +.` ' $. ...` o.o.` _ ....+._ _ ` ` ` _ ) ` +. .)  .$.+._ $. .} ` X.X.) ` ../ G F M x g 0 o O ",
"~ = q v c N G G ` _ +.) ) ) X._  .$.'  ...+.` o.o.` _ $..._  .$.o.X.X.X.X.$.+.) ` ..` ` $.+._ $._ )  .X.+.( $.) G F N c j 0 = 1 ",
"~ s d l m D G Y ` ` +.) ' ` X.) +.+.) ..`  .+.O. ._ X.+._ X.O.O.o...+...X.O.o.o.` ) +.` ` X.` ` $.) ) +.o. ._ ..Y G D m v f t : ",
"; t g v M D G ] ) ` +.) } +.X.` $._ _ $.` ` O.$._ X.$._ o.O.X._ ) _ _ ) ' )  .O.O. .) +.` ` .._ +.+.' _ X.X.' $./ G D M l d n 3 ",
"o n g z M F G ) }  .+.) ( ..+. .$.} ` +.`  .O.` ..X.` o.O. ._  ...$.X.$.+._ ) ) X.O.` ) ..) .. .) X.) ) +.o._ _ ' G F M z h q C ",
"1 8 g z N F Y _ ( +. .) ' $._  ...( ..` ` X.X._ $.$...O.$.` $.o.X...$.o.o.X.` ) ) X.o._ `  ._ +.`  .+.' _ X...' _ G F M x h q 3 ",
"Z f g x N F Y  .} +.` ) ' X.)  .+.' $._ _ o...` X...o.o.$.X.o.$._ ) ) _ $.O.o.` ) ) O...} +.) ..+.) X.} ) +.o.) _ Y F N x j w > ",
"Z 8 j c N G G ..} +.` ) } $.` +. .) $._ _ o.+.+.X...o.o.X.X.+._ _ _ _ _ _ ..O.o._ ) +.o.` _ _ _ +._ +.` _ ` $.` ) G G N x g d Z ",
"> q j c N G G $.} +.` ) ' X._ +.+.' X._ _ o.+...X.$.o.o.X.$._ ) ) ' ' ) _ ` X.O...) ) o...( ` ' ..` ) $.' _ ..X.) G G N c j q 1 ",
". q j c N G Y $.' +. .) } $. . . .) X._ _ o...$.X.X.o.X.o.$.) ) ' _ _ ) _ ` +.O.X._ ' $.$.'  ._ +.` ) X.} ) ..X._ G G N c g 0 1 ",
"@ d g c N G G .._ `  .) ( +...`  .' $._ _ X.....o.o.o.o.o.X.` } )  . .`  .+...O.o.` '  .$.) ` ` +._ ) X.' ) +.X._ G G N c g 9 # ",
"= :.j x N F G ` ` ` +.) ( +.$.` ..( +.` ) ..X.+.X.X.o.o.o.o.$.` ` ..+.+.+...$.o.o. .' _ $._ _ ` ` ` ) $.) )  .X._ G F N x g 9 ; ",
"$ 9 g x M F G '  .) .._ ' ` X.` $.} ` $._  .O.+.X.o.X.o.o.X.o.o.X.X.$.+...$.$.o.O. .} ` X._ _ _ `  ._ ..` ) ` X.) G F M x g 9 H ",
"O -.g x M F G ] ..} +.` ) ) X.` ..` ' X.+._ o.X.$.o.o.X.X.o.o.o.X.$.$.$.X.$.X.O.o. .(  .X.) ` _ ` ` _ +.` ) ` X.} G F M z h 0 Z ",
"J 7 h l M D G / ..) ` +.) ( +... .$.( ..$.) ..O.$.X.o.o.X.o.X.X.X.$.X.X.X.X.X.O.o._ } +.$.} ` _  ._ _ +.` ) ` X./ G D M l h 7 J ",
"2 n d v m D G Y +...) ..) ' _ o.` $._ _ X. .) X.o.X.o.o.o.o.o.X.X.X.X.o.X.o.o.O.$.} ) $.+.]  ._ +.` _ $.) ) _ o.[ G D m l d e . ",
"=.4 9 v c N F G ' X.} +.+.) } X.$.+.$.} ..o.` _ o.O.X.o.o.X.o.o.o.o.o.o.o.o.O.O.` } ` o.` ( +.) ..` ) X.} ) ` ..Y F N c j d a ~ ",
"$ % f g x M F G / +.` _ $.) ' _ o.+.$.` ( X.o.` _ X.O.o.X.o.o.o.o.o.o.o.o.O.O.$.( _ X.X.' ` +.) ..` ' o.( ) +.' G F M z g d # o ",
"< + 8 g l m D G Y _ ..} ..+.) ' ..o...X.) } $.o.` ) ..o.O.o.o.o.o.o.o.o.o.O.X.) ' ..o...] .._  . ._ _ ..} ) ..[ G D M l f w + X ",
">.=.$ d v x N F G ( +. .) $.` ' } X.O...X.) ] ..X.X.` _ +.$.o.o.X.X.o.O.O.$.' ' +.O.X.] _ ..' +.` ' ..` ) ) ` G F N c j d a O ;.",
"$ . :.9 g l M D G [ _ $.) +.$._ ( ) o.O.$.X. .} ` $.X.o.....$.X.o.O.o.X. .( ' ..O.O._ ( $.` `  .) ' o.) ) ` / G D M l h q -.o ~ ",
"; J =.8 d j m N F G ] +...} ..$._ ( ) o.O.o.X...) ] _ +.+.......+...` ( ( _ ..O.O. .( +...) .._ } ` ..' _ ) G F N c v d 8 O o X ",
"J 2 1 $ q h z M D G Y ' .. .} $...) ( ' $.O.O.X.X. ._ ( ] } ' } ] ] ( ` +.o.O.O.` ] ` $.}  .+.' } o.) _ ) [ G D M z g d = o 2 2 ",
"2   # -.8 d v c N F G / ' .. .( ...._ } } +.X.O.O.O.X...+. . . . . ...o.O.O.X.) ] ` $.'  ...) }  .+.} _ / G F N c j d n o O 2 H ",
": X ~ ~ a 0 g l m D F Y / ' $. .( ..X. .' ( ' +.X.o.O.O.O.O.O.O.O.O.O.O...` ] ( +.X.) ` $._ } ' X.} _ ] G G D m l h 0 w X   X | ",
"1 1 ~ ~ Z e d j x M D G Y ] ' ....' ` X.$._ ' ( } ` +.$.X.X.o.X.X.X.+._ ] ( ` $...}  .$._ ( } o. .) } Y G D M z j q B 2   O + ~ ",
": 1 | =.3 6 8 f v c N F G [ ( ' ..$.` } +.$...` ) } ( ( } ' ' ( ( ( ] ' ` $...` ) +.$._ ( ( $...) ' Y G F N c j f 0 6 . . o . 1 ",
";.. Z ~ =.#.t d h v c N F G Y ( _ _ +.+.) )  .......+.` _ ) _ _ `  .+...+.` ' _ $...' ] ( $.+.) ( Y G F N m l h d T O X O + # ~ ",
"o # X ~ ~ i H = d g l m N F G Y ] _ ( +...+.) } ) ` +.........$...+.` _ ' ` ..+.` ( ] ( $...) ] Y G F N m z g f 4 E O O o o + X ",
"H ~ H $ =.K | y n d h l c N F G G / _ _ ' `  ...+._ ' ' ' ) ' ) ) _ ` +...+._ } ] ] ) o...' [ G G F N m l g q $ o i =   O O # ~ ",
"X < 1 3 | L J H a n f g l m N D G G Y ] _ _ } ) ` `  .+.+.+.+.+...+.` ` ) ( ] ] (  .X. .] Y G G D N m l h f w $ + V   o o O & ; ",
"Z . # 2 ;.,.2 @ | $ n f g l c M D F G G [ ] ) _ ) } } ' ' ) ) ' ' } ( ( ] ] ' _ X...( Y G G F D M x l g f w &.A =.{ . o & 2 O < ",
">.1 1 1 ;.P # O : 1 y t f h v x m N D F G G Y / ( ' ' ' ' ' ' ( ] ] ] } ) ..o.` ] Y G G F D N m z j h f 8 u ~ 2 . W & O 2 o # O ",
". S H # ~ #.: J 3 O O a t q f v l c M N D F G G G Y / ] ( ' ) _ _ ) _  .) ] [ G G G F D N M c l j g 8 -.-.2 1 1 O K > $ o o . : ",
"; 2 . |   K H A ~ ;.1 1 & 7 n d g v z c M N D F F G G G G G G G Y G G Y G G G G F D N M m z v h d n -.o 1 ~ 3 ;   ,.: . o o o < ",
"3 o ~ C > L V I E V { &.K L r r 9 d h j l c m M N D D F F G F G G G F F F D D N M m c l j h d B 6 R K E K V L E i <.O O 3   + ; ",
"S 2 O 3 S Z   3 2 | X . < 2 ~ 4 = n d g g j l x c m M M N N N N N N N M M M m c x l v g f d n = &.. H H Z $ =.1 ! . . & 1 o   ~ ",
"3 2 ~ 2 ~   o ~ S Z 3 1 X . H 1 . 1 4 n q f g g v v l z z x c c c c x c z l l j g f d 9 8 &.X < ~ C X < > J . =.X o S O o o o A ",
"X 3 O ~ ~ o ; ;   H J J X . ;.~ O 1 2 . a -.8 n d f h g g j j v j v g g g f f d 0 9 = O $ . H < J =.=.~ =.2 ~ ~ ~ 1 ; o o # o =.",
": 1 o X o H H 1 ~ 3 1 2 > 3 J | ~ ! =.. ~ J > Z -.4 8 n 8 f 8 q q d 8 8 n n -.-.o X # 3 2 | X X ~ $ : ~ ; 2 Z 1 1 1 % . % O y o ",
"2 2 2 | . ~ S 2 1 X J > > 2 2 ~ J Z Z . Z ! ~ ~ ~ 3 H 2 ! ; : | ; 3 ; X J O . O . ; 1 O C | J J ;.o ~ $ . C : X ~ : o = + = O 3 "
};
