/* XPM */
static char *grass[] = {
/* columns rows colors chars-per-pixel */
"64 64 34 1 ",
"  c #446848",
". c #476A4A",
"X c #476C4A",
"o c #476B4C",
"O c #476C4C",
"+ c #486B4B",
"@ c #496C4B",
"# c #496C4C",
"$ c #4A6D4C",
"% c #4B6E4D",
"& c #496F4E",
"* c #4A6F4F",
"= c #4C6F4D",
"- c #4B714D",
"; c #4B704F",
": c #4C704D",
"> c #4C724F",
", c #4D734F",
"< c #4E724F",
"1 c #4C7050",
"2 c #4D7151",
"3 c #4C7250",
"4 c #4D7250",
"5 c #4F7350",
"6 c #4F7352",
"7 c #4F7450",
"8 c #4F7452",
"9 c #4F7553",
"0 c #507551",
"q c #507452",
"w c #507453",
"e c #517653",
"r c #527654",
"t c #527755",
/* pixels */
"444444=444>>;*>>4*w;44;>444444==414o*4*;4**;;;>=41*>3;43*48;4448",
"44;*>=1==4>;>*>>1=;8;O>444**4444144144*4==>.;;*>41;.;;441*48*;;;",
"r4>4>>>=14*;>>>>11==;;>>>=;*=>>>1=41;;44*q;=;;4>48;;4***13*8>;8;",
"r8>4>>>>*4*;=>=*144#;4;;=>@*=q>>1*11;****>*.;;>>*4;;4>.*14*ww>8;",
"48>>>>==**=#*=**=4*=#4#=*@@@>@$=$*#*;.O;**##**@*O;;;****>*>w>>w>",
"44ww>>=>=4=4*>>>44=**4=4;*>@>@>>>=@*;*;;==*@*#=*;;;@..=#*==>ww>>",
"448w>=>w>q4q4qq>q44q*444>>>*>>>w>>4>;>;>q>q4**>=;;>*;.>>*;7>7ww>",
"rw>4w==wq>4q4qq4q>q4444=>ww>>>>>7>>>>>484>q>>==>>>>;;.>>;;ww77>7",
"qq>4>>>>q>14=#=444q=====4q4===>>>>=*=4q4=*=1>>==>>>;;@*4;;>w88>w",
"qqwq>**4>>====#===41*#*441===**4==#*#==1=#*=#==#*>84;.>*;;8w>w*>",
"t44q>#=4=>=444444>44144q=1>>>q4q>>>=q4q444=1>>=#*;;;;X>q8>ww7w>>",
"qqq>=@=4q>#4w44=1444q4444444>>>4=>4q44=44q44>>>*@>;;*.>*;;88q>>>",
"qqq4**@q44.44414>>4=44444444>==4=4>>>>>4444444>=>>>>;X;**=>qq>==",
"wq>4>==>44#>4w4**=>===*1=4$=>*#==*>*#$7====1q4>4>>>>;.;;14=q>7>>",
">4>>>@=44q#1qq>#44==*#===41=4*==**=#@>=>4==#q>4>=>>>8X;;4;=4>==>",
">>>>>*4>>4#qwq=*44=>4>q444414414=>>>>7q>441*44>===>>;X8;;;=>77>7",
">q>7q=>q>>#q>q==>44q4q44==44rq447>=>44w4>>=#q44==>q>;.>;;;>>>>4w",
"4>>77=>q>>=q4>@*444qqw=q=>4q44q4>=>>44wq>41#wq4#*>q>> 4>**>>>ww>",
">>qq>=>q>>#qq>=*4>qq4=>q*>>>414>>=$>>=4q4>w#q44==4=4; ;;@*@>ww>>",
"=q>>>==7>>*44>=#4qq4.#===#=#===*==*=**=qq>w=w44==444;@;;=;>=7><w",
"4q444=#>q>@4q==#w>>>*>*==>qq>=qqq4>>4#=4q>>#qq=4=144***4===q>>7>",
"q444q==>44=qq*==w>>=#*4q>4qq4qqq>4q41===444.444====4*#1*==>>>>>7",
">4=41==444*q44##>w>q@>w4=>q>=qq>4q4qq==>>qq#4>>1*444= 11*177=777",
"qq4q4=44>4#q41*==w>>#>w>>>>>>>>>q4>qq4=>7q>#4>>*==4==.411=qq>q>q",
"r4q4q=4444=q44>4w>qw#*>qq4>qq=q=q>=qw==>4q>*q=4=*48>4.444=w444rq",
"qqq>4=4444#==4==w>ww#4>q=4>q7>>qq>qq4*=>qq=#q=4=>88*1.===*4qr444",
">q44=>=>4===>4==>w>w==>qq>>q>7qwqqq==#=>>>4 >>q=>>44*.>=1144w44r",
"q>>qq*=>q4#=4>>=w7w>==q>q>>qq>>qqq7qq==>>1q#4>q=>>4*4.=>1=444444",
"q=44q===q4*>4q>=>>7>#>qq>qqqq>4q44qqq**=qqq#7>7$=>>>>#>*>@>>*484",
">=q>>*=>4w#44q>=>>q>#>qq7>4q>>qq>4qrq==>4qq==77$=ww>@#>>>@>;44;4",
"qq4>>*$>44#>>44#>7qq#qqq7qqqqq=q>qq4q444==1$q>:>>>>w@#>>>>>ww8>>",
"4q44>===44.4>q>*7>>q#>qq7==4=q44>>q4q=44qq>#7>w$$>>w*@>>>@>w>8>8",
"44441$2444#>444=qq>7#7ww4=4=4qqq=q1qq==4444#=q44=4444o1q4o=444w>",
"44444==44>.4wq4=q=q>=>>44qq444q4q=q4q#=44>q#4=4==444q.444*>>q=w>",
"44414444q4#>44#=q=>>*>>>qqq4q==4q=444=q444$#q44==4q4*.4=4**4>>88",
"444q44>>r4#444=*>==q#>qq4qq>4q4=4q4q41=q4q=#q44===q41.4*44;8*>88",
"444qq==>44*4q4>*>>>>#>=>4=*1>=======4=1wqq>#q>>**=>=>#41=>>>>ww8",
"444q>===43*qq4===>>q44#>41==#=4==4=44=1qqqq$>>>*=>>4> =1>>=>*w>8",
"4w4q>$=>>>=q>q=@=qq7w4>444=*>q44=1q1w4q4>q>#>=>==>>q>#==q>>777>w",
"4w4q>*#>q>#qq>=#>qq>qq444=*4>>4>=14q4444>qq=>qq>*=4q4=14q>>qqw>>",
"4qqqq=*>q4=qq4>=7q44q4q4>=>>>>44444q>>4>qqq#qq4*#>>w>.>4>484w4ww",
"44=>4=444=*>qq>#====4=44===>>===4q4=*4=*>>q#441#@>>>;#>w44w4;;88",
"44q>>=4444#q44>*==*$**=##=#*#q==*====4#.##>=q=4=@q>>;@.>*=44w7>>",
"q4q>4==q4=#4qq4>=qqq==41>q>4>qqq4q144q44=>>=q444=>>;;**4>>44q>>>",
"4=4444144>#qt=>>411q4qqq444>4qqq4q444rw4*=>4>444>ww=>==1>=>>=>>q",
"4=444==444#>qq>>4*1=4qq4444>q>>q4q444444==>>=>4=>www>#=4>=>>>>>>",
"q44q1==4=4#*==**4>#=*===*=*=======*#=#1=#======*$w>w>@44>=>q>7q>",
"q44rq==4q>>*===*4>==#1=====44=*4=#===111>>==>==4>>>w***=44>q7ww>",
"4144>$=>*qq4qq=qw4>7>>>>>>>qqq=4>>>q>=>>q4q>>>>qw>>w*#*4444>>4q=",
"4=4w>#==>q44q4qwww>>>>>q>>>>qqq4q44>qq>4qq>>>=>>w7w71#=444>=>44=",
">=44===>q>>4>>q4ww>*>>=>=>>>>qq>q=>>==>4q7>=>>qqqqww1#4q411>>>>>",
"4q4>>==>>=>>>==>>>*>>>=====>>q>>q>>=*====q>=#=>>>>77=#444=44q>>>",
"ww>ww===4=#4**#$=>==#4*==*=*@=#===*###==*#==@=#>$7===#444=>q4>qq",
"w=w>>=$>4444>qq>>qqq>4=>=qqqq>4q*qq=q>>q=7>>>>>q>7>qr==44==>4qq=",
"7qqww>>w=4qqq=>77q>>qw>>qq>q>44q>qq>4>>4>q>q>wq771==4414444qqqq>",
">>q>>>ww=qq=q>>>ww>>>w*qq>qqqq4q>>q>q=>>4q=q44>>qqqq4r4=*44=q>q>",
"4444;3444w444w4444;>8>44r44q4=44qq44444488;8>>>>88444>*1*444q44*",
"w444>33444>44444;;;>>>*444r44>w*>=1=1144;8>>>;>>4>;>w**14441=q*1",
">=>>>>444**4*;444;447>>=44=44>1o>===*44*;;>>;;>*4*;;4;=411414444",
"4>>>>*=4444=>;441*44>>==94*4=>4=>2==*441*>*@>;>;>>;*;;q>11144;44",
"w4444>==*4=1>44*1=>*>*>;*3*3>>>q44q=>=41;>>*;*44>44*4*;>>;>8;>4;",
"t>=4>>>>=*1=>>>>1>q=*>>;44***>q41*4>1=11*8*@;34>441=8**@;>>w4>4>",
"qq44>>>>3#@=@**=>>;X@>**;XX**>4;****=#*#;;X@;;;;**114*@*>>>8<;84",
"4qqq>@**.**#=*=>@>*.#>X;XX*X*.*O;OO.**.*.*..*;OoXo1#.X*@>@><884;"
};
