/* XPM */
static char *wall[] = {
/* columns rows colors chars-per-pixel */
"64 64 58 1 ",
"  c #131426",
". c #131427",
"X c #141527",
"o c #141528",
"O c #151628",
"+ c #151629",
"@ c #161729",
"# c #17182B",
"$ c #17192B",
"% c #18192C",
"& c #191A2D",
"* c #1A1B2E",
"= c #1A1B2F",
"- c #1B1C2E",
"; c #1B1C2F",
": c #1C1D2F",
"> c #1C1D30",
", c #1D1E31",
"< c #1D1E32",
"1 c #1E1F32",
"2 c #1E1F33",
"3 c #1E2033",
"4 c #1F2033",
"5 c #1F2034",
"6 c #202135",
"7 c #202236",
"8 c #212236",
"9 c #212237",
"0 c #222338",
"q c #222438",
"w c #222439",
"e c #232539",
"r c #23253A",
"t c #24253A",
"y c #24263A",
"u c #24263B",
"i c #25263C",
"p c #25273C",
"a c #25273D",
"s c #26283E",
"d c #27293F",
"f c #282A40",
"g c #282A41",
"h c #292B41",
"j c #292B42",
"k c #2A2C42",
"l c #2A2C43",
"z c #2B2D43",
"x c #2C2D41",
"c c #2B2D44",
"v c #2D2F44",
"b c #303145",
"n c #303146",
"m c #313247",
"M c #32344B",
"N c #34354A",
"B c #37394F",
"V c #3E4055",
/* pixels */
",ccccccccccccccccccccccccccccccccccccccccccccccccccccccccccccccc",
"  ,zcccccccccccccccccccccccccccccccccccccccccccccccccccccccccccc",
"   Xeccccccccccccccccccccccccccccccccccccccccccccccccccccccccccc",
"     ,zccccccccccccccccccccccccccccccccccccccccccccccccccccccccc",
"     Xoezccccccccccccccccccccccccccccccccccccccccccccccccccccccc",
"       X,ezccccccccccccccccccccccccccccccccccccccccccccccccccccc",
"        Xo,hcccccccccccccccccccccccccccccccccccccccccccccccccccc",
"          Xo0zcccccccccccccccccccccccccccccccccccccccccccccccccc",
"            oe65444444444444445544444444444454444440cccccccccccc",
"             aa,,,,,,,,,,,,,,,,,,,,,,,,,,,,,,,,,,,:%cccccccccccc",
"             sz6,,,,,,,,,,,,,,,,,,,,,,,,,,,,,,,,,,;%cccccccccccc",
"             sch5,,,,,,,,,,,,,,,,,,,,,,,,,,,,,,,,:X%cccccccccccc",
"             sccu4,,,,,,,,,,,,,,,,,,,,,,,,,,,,,,;X %cccccccccccc",
"             scczu4,,,,,,,,,,,,,,,,,,,,,,,,,,,,,;  %cccccccccccc",
"             sccczu5,,,,,,,,,,,,,,,,,,,,,,,,,,,;o  %cccccccccccc",
"             scccczu4,,,,,,,,,,,,,,,,,,,,,,,,,;oX  %cccccccccccc",
"             scccccz6,,,,,,,,,,,,,,,,,,,,,,,,,%    $cccccccccccc",
"             scccccch6,,,,,,,,,,,,,,,,,,,,,,,,o    $cccccccccccc",
"             sccccccza5,,,,,,,,,,,,,,,,,,,,,:o     $cccccccccccc",
"             scccccczzu4,,,,,,,,,,,,,,,,,,,,%X     %cccccccccccc",
"             scccccccczbNNNNNNNNNNNNNNNNNNv:oX     %cccccccccccc",
"             scccccccccBVVVVVVVVVVVVVVVVVVbX       %cccccccccccc",
"             scccccccccBVVVVVVVVVVVVVVVVVVbX       %cccccccccccc",
"             scccccccccBVVVVVVVVVVVVVVVVVVbX       %cccccccccccc",
"             scccccccccBVVVVVVVVVVVVVVVVVVb        %cccccccccccc",
"             scccccccccBVVVVVVVVVVVVVVVVVVb        %cccccccccccc",
"             scccccccccBVVVVVVVVVVVVVVVVVVb        %cccccccccccc",
"             scccccccccBVVVVVVVVVVVVVVVVVVb        %cccccccccccc",
"             scccccccccBVVVVVVVVVVVVVVVVVVb        %cccccccccccc",
"             scccccccccBVVVVVVVVVVVVVVVVVVb        %cccccccccccc",
"             scccccccccBVVVVVVVVVVVVVVVVVVb        %cccccccccccc",
"             scccccccccBVVVVVVVVVVVVVVVVVVb        %cccccccccccc",
"             scccccccccBVVVVVVVVVVVVVVVVVVb        $cccccccccccc",
"             scccccccccBVVVVVVVVVVVVVVVVVVb        $cccccccccccc",
"             scccccccccBVVVVVVVVVVVVVVVVVVb        %cccccccccccc",
"             scccccccccBVVVVVVVVVVVVVVVVVVb        %cccccccccccc",
"             scccccccccBVVVVVVVVVVVVVVVVVVb        %cccccccccccc",
"             scccccccccBVVVVVVVVVVVVVVVVVVb        %cccccccccccc",
"             scccccccccBVVVVVVVVVVVVVVVVVVb        %cccccccccccc",
"             scccccccccNBBBBBBBBBBBBBBBBBBv$       %cccccccccccc",
"             sccccccccccccccccccvzccccccccze%X     %cccccccccccc",
"             scccccccccccccccccczzccccccccchu%oX   %cccccccccccc",
"             sccccccccccccccccccccccccccccccch5o   %cccccccccccc",
"             scccccccccccccccccccccccccccccccch5#  %cccccccccccc",
"             scccccccccccccccccccccccccccccccccze#o%cccccccccccc",
"             sccccccccccccccccccccccccccccccccccza6%cccccccccccc",
"            oudddddddsshddddddddsddddddddddddddddda6hccccccccccc",
"            :,,,,,,,,,,,,,,,,,,,,,,,,,,,,,,,,,,,,,,,uccccccccccc",
"           o,,,,,,,,,,,,,,,,,,,,,,,,,,,,,,,,,,,,,,,,4dcccccccccc",
"          o;,,,,,,,,,,,,,,,,,,,,,,,,,,,,,,,,,,,,,,,,,6zzcccccccc",
"         o,,,,,,,,,,,,,,,,,,,,,,,,,,,,,,,,,,,,,,,,,,,,uzcccccccc",
"         ;,,,,,,,,,,,,,,,,,,,,,,,,,,,,,,,,,,,,,,,,,,,,,ucccccccc",
"        X;,,,,,,,,,,,,,,,,,,,,,,,,,,,,,,,,,,,,,,,,,,,,,6zzcccccc",
"       X,,,,,,,,,,,,,,,,,,,,,,,,,,,,,,,,,,,,,,,,,,,,,,,,uzcccccc",
"       ,,,,,,,,,,,,,,,,,,,,,,,,,,,,,,,,,,,,,,,,,,,,,,,,,,ucccccc",
"      X,,,,,,,,,,,,,,,,,,,,,,,,,,,,,,,,,,,,,,,,,,,,,,,,,,,hccccc",
"     X,,,,,,,,,,,,,,,,,,,,,,,,,,,,,,,,,,,,,,,,,,,,,,,,,,,,4zcccc",
"    X:,,,,,,,,,,,,,,,,,,,,,,,,,,,,,,,,,,,,,,,,,,,,,,,,,,,,,uzccc",
"    ,,,,,,,,,,,,,,,,,,,,,,,,,,,,,,,,,,,,,,,,,,,,,,,,,,,,,,,,uccc",
"    :,,,,,,,,,,,,,,,,,,,,,,,,,,,,,,,,,,,,,,,,,,,,,,,,,,,,,,,,zcc",
"  X,,,,,,,,,,,,,,,,,,,,,,,,,,,,,,,,,,,,,,,,,,,,,,,,,,,,,,,,,,ucc",
"  ,,,,,,,,,,,,,,,,,,,,,,,,,,,,,,,,,,,,,,,,,,,,,,,,,,,,,,,,,,,,uc",
"  ,,,,,,,,,,,,,,,,,,,,,,,,,,,,,,,,,,,,,,,,,,,,,,,,,,,,,,,,,,,,,c",
" ,,,,,,,,,,,,,,,,,,,,,,,,,,,,,,,,,,,,,,,,,,,,,,,,,,,,,,,,,,,,,,,"
};
